<svg width="24" height="24" viewBox="0 0 24 24" fill="none" xmlns="http://www.w3.org/2000/svg">
  <defs>
    <linearGradient id="enhance_sparkle" x1="7" y1="14" x2="20" y2="4" gradientUnits="userSpaceOnUse">
      <stop offset="0" stop-color="#FE11D2"/>
      <stop offset="1" stop-color="#0247FF"/>
    </linearGradient>
  </defs>
  <path d="M19 12.5C19 16.6421 15.6421 20 11.5 20C7.35786 20 4 16.6421 4 12.5C4 8.35786 7.35786 5 11.5 5" stroke="#070707" stroke-width="1.5" stroke-miterlimit="10" stroke-linecap="round" stroke-linejoin="round"/>
  <path d="M8 19L14 12L18 15.6667" stroke="#070707" stroke-width="1.5"/>
  <path d="M16.0897 4.27722C16.1228 4.19532 16.1797 4.12517 16.2529 4.07578C16.3262 4.02639 16.4126 4 16.5009 4C16.5893 4 16.6756 4.02639 16.7489 4.07578C16.8221 4.12517 16.879 4.19532 16.9121 4.27722L17.1343 4.8109C17.5057 5.71647 18.2103 6.44513 19.1029 6.84676L19.731 7.12672C19.8114 7.16388 19.8794 7.22326 19.927 7.29782C19.9747 7.37239 20 7.45904 20 7.54754C20 7.63603 19.9747 7.72268 19.927 7.79725C19.8794 7.87182 19.8114 7.93119 19.731 7.96836L19.0661 8.26407C18.1959 8.65455 17.5036 9.35686 17.1256 10.2326L16.9095 10.7277C16.8759 10.8084 16.8191 10.8773 16.7464 10.9257C16.6737 10.9741 16.5883 11 16.5009 11C16.4135 11 16.3281 10.9741 16.2554 10.9257C16.1827 10.8773 16.126 10.8084 16.0923 10.7277L15.8771 10.2334C15.4989 9.3571 14.8059 8.65441 13.9348 8.26407L13.2699 7.96836C13.1894 7.9313 13.1211 7.87192 13.0733 7.79725C13.0254 7.72259 13 7.63578 13 7.5471C13 7.45843 13.0254 7.37161 13.0733 7.29695C13.1211 7.22228 13.1894 7.1629 13.2699 7.12584L13.8981 6.84588C14.7907 6.44485 15.4955 5.71685 15.8675 4.81178L16.0897 4.27722Z" fill="url(#enhance_sparkle)"/>
  <path d="M9.20693 9.19802C9.2306 9.13951 9.2712 9.08941 9.32353 9.05413C9.37586 9.01885 9.43754 9 9.50065 9C9.56376 9 9.62544 9.01885 9.67777 9.05413C9.7301 9.08941 9.7707 9.13951 9.79437 9.19802L9.9531 9.57922C10.2184 10.2261 10.7216 10.7465 11.3592 11.0334L11.8079 11.2334C11.8653 11.2599 11.9138 11.3023 11.9479 11.3556C11.9819 11.4089 12 11.4707 12 11.534C12 11.5972 11.9819 11.6591 11.9479 11.7123C11.9138 11.7656 11.8653 11.808 11.8079 11.8345L11.3329 12.0458C10.7114 12.3247 10.2168 12.8263 9.94685 13.4518L9.79249 13.8055C9.76847 13.8631 9.72793 13.9123 9.676 13.9469C9.62407 13.9815 9.56306 14 9.50065 14C9.43824 14 9.37723 13.9815 9.3253 13.9469C9.27337 13.9123 9.23284 13.8631 9.20881 13.8055L9.05508 13.4524C8.78491 12.8265 8.28989 12.3246 7.66774 12.0458L7.1928 11.8345C7.13525 11.8081 7.0865 11.7657 7.05233 11.7123C7.01816 11.659 7 11.597 7 11.5336C7 11.4703 7.01816 11.4083 7.05233 11.355C7.0865 11.3016 7.13525 11.2592 7.1928 11.2327L7.64149 11.0328C8.27905 10.7463 8.78251 10.2263 9.0482 9.57984L9.20693 9.19802Z" fill="url(#enhance_sparkle)"/>
</svg>
