<svg width="24" height="24" viewBox="0 0 24 24" fill="none" xmlns="http://www.w3.org/2000/svg">
  <path d="M6.12662 16.3685L4.09136 8.77279C3.86654 7.93374 4.36464 7.071 5.20369 6.84618C6.04274 6.62136 6.90548 7.11946 7.1303 7.95851L7.94436 10.9966L13.2435 10.7731C14.4766 10.6932 15.5955 11.4958 15.9154 12.6897L16.7417 15.7737C16.9073 16.3915 16.9267 17.0386 16.7985 17.6654C16.4858 19.1934 15.3364 20.4141 13.8295 20.8178L11.4267 21.4617C9.5132 21.9744 7.47057 21.5177 5.95693 20.2402L4.67575 19.1589C4.11997 18.8112 3.71706 18.266 3.54727 17.6323L2.86475 15.0851M18.32 2.77051L21.25 5.70051L18.32 8.63051M14.422 5.70051L21.241 5.70051" stroke="#070707" stroke-width="1.5" stroke-miterlimit="10" stroke-linecap="round" stroke-linejoin="round"/>
</svg>
