<svg width="32" height="32" viewBox="0 0 32 32" fill="none" xmlns="http://www.w3.org/2000/svg">
<path d="M30 13L27.346 10.346M27.346 10.346C27.8 9.89199 28.1601 9.35304 28.4058 8.75988C28.6515 8.16673 28.7779 7.53099 28.7779 6.88896C28.7779 6.24693 28.6515 5.61119 28.4058 5.01804C28.1601 4.42488 27.8 3.88592 27.346 3.43194C26.892 2.97796 26.353 2.61784 25.7599 2.37215C25.1667 2.12646 24.531 2 23.889 2C23.2469 2 22.6112 2.12646 22.018 2.37215C21.4249 2.61784 20.8859 2.97796 20.4319 3.43194C19.5151 4.3488 19 5.59233 19 6.88896C19 8.18559 19.5151 9.42912 20.4319 10.346C21.3488 11.2628 22.5923 11.7779 23.889 11.7779C25.1856 11.7779 26.4291 11.2628 27.346 10.346Z" stroke="currentColor" stroke-width="2" stroke-linecap="round" stroke-linejoin="round"/>
<path d="M10.6667 23.2V25M21.3333 23.2V25M18.3529 7H13.6471C10.9849 7 9.65333 7.0009 8.82667 7.7911C8 8.5813 8 9.8548 8 12.4V17.8C8 20.3452 8 21.6187 8.82667 22.4089C9.65422 23.2 10.9849 23.2 13.6471 23.2H18.3529C21.0151 23.2 22.3467 23.1991 23.1733 22.4089C24 21.6187 24 20.3452 24 17.8V12.4M16 23.2V7M13.3333 14.2V15.1M18.6667 14.2V15.1" stroke="currentColor" stroke-width="2" stroke-linecap="round" stroke-linejoin="round"/>
</svg>
