<svg width="24" height="24" viewBox="0 0 24 24" fill="none" xmlns="http://www.w3.org/2000/svg">
<path d="M6 20V22M18 20V22M12 20H14.647C17.642 20 19.14 19.999 20.07 19.121C21 18.243 21 16.828 21 14V13C21 10.172 21 8.757 20.07 7.879C19.139 7 17.642 7 14.647 7H12M12 20H9.353C6.358 20 4.861 20 3.93 19.121C3 18.243 3 16.828 3 14L3 13C3 10.172 3 8.757 3.93 7.879C4.86 7.001 6.358 7 9.353 7H12M12 20V13.5V7M14.647 14V12.5M9.353 12.5V14" stroke="currentColor" stroke-width="1.5" stroke-linecap="round" stroke-linejoin="round"/>
</svg>
