<svg width="100%" height="100%" viewBox="0 0 24 24" fill="none" xmlns="http://www.w3.org/2000/svg">
  <g stroke="currentColor" stroke-width="1.5" stroke-linecap="round" stroke-linejoin="round">
    <path d="M4.5 9.5V4M4.5 4L2.5 6M4.5 4L6.5 6"/>
    <path d="M11 11.5V7.5C11 6.67 11.67 6 12.5 6C13.33 6 14 6.67 14 7.5V12"/>
    <path d="M14 9.5C14 8.95 14.45 8.5 15 8.5C15.55 8.5 16 8.95 16 9.5V12"/>
    <path d="M16 10.5C16 9.95 16.45 9.5 17 9.5C17.55 9.5 18 9.95 18 10.5V12"/>
    <path d="M18 11.5C18 10.95 18.45 10.5 19 10.5C19.55 10.5 20 10.95 20 11.5V15C20 17.49 17.99 19.5 15.5 19.5H14.5C12.84 19.5 11.34 18.51 10.69 16.98L9.2 13.5C8.92 12.85 9.39 12.12 10.1 12.12C10.5 12.12 10.86 12.36 11.01 12.73L11 11.5"/>
  </g>
</svg>
