<svg width="54" height="54" viewBox="0 0 54 54" fill="none" xmlns="http://www.w3.org/2000/svg">
<path d="M4.635 12.5129L2.25 10.1279L9.77145 2.60645C9.96671 2.41119 10.2833 2.41119 10.4786 2.60645L18 10.1279L15.615 12.5129L11.97 8.86789C11.0897 12.3391 11.0131 15.9655 11.7462 19.4707C12.4792 22.976 14.0025 26.2678 16.2 29.0954L13.7925 31.5029C9.95564 26.716 7.868 20.7627 7.875 14.6279C7.875 12.5579 8.1 10.5329 8.55 8.59789L4.635 12.5129Z" fill="currentColor"/>
<path d="M23.0529 12.9073C24.4087 12.4556 25.0935 12.6475 25.4465 12.8419C25.8579 13.0685 26.2155 13.5168 26.5266 14.212L26.5295 14.2179L31.6613 25.5782C32.0253 26.384 32.8279 26.9015 33.7121 26.9015H47.5226L51.4514 40.795L35.009 48.087L21.7287 42.5529L22.6642 39.0655L28.4377 39.8585C30.183 40.0983 31.5149 38.3299 30.8019 36.7189L21.3771 15.421L21.3742 15.4152L21.3381 15.3155C21.2656 15.061 21.2799 14.6534 21.5461 14.1622C21.8406 13.6189 22.3704 13.1346 23.052 12.9073H23.0529Z" stroke="currentColor" stroke-width="3.5"/>
</svg>
