<svg width="100%" height="100%" viewBox="0 0 24 24" fill="none" xmlns="http://www.w3.org/2000/svg">
<path d="M2.5 7.25C2.5 5.482 2.5 4.598 3.05 4.05C3.597 3.5 4.481 3.5 6.25 3.5C8.019 3.5 8.902 3.5 9.45 4.05C10 4.598 10 5.482 10 7.25C10 9.018 10 9.902 9.45 10.45C8.902 11 8.018 11 6.25 11C4.482 11 3.598 11 3.05 10.45C2.5 9.903 2.5 9.019 2.5 7.25ZM2.5 17.757C2.5 15.989 2.5 15.105 3.05 14.557C3.598 14.007 4.482 14.007 6.25 14.007C8.018 14.007 8.902 14.007 9.45 14.557C10 15.105 10 15.989 10 17.757C10 19.525 10 20.409 9.45 20.957C8.902 21.507 8.018 21.507 6.25 21.507C4.482 21.507 3.598 21.507 3.05 20.957C2.5 20.41 2.5 19.525 2.5 17.757ZM13 7.25C13 5.482 13 4.598 13.55 4.05C14.098 3.5 14.982 3.5 16.75 3.5C18.518 3.5 19.402 3.5 19.95 4.05C20.5 4.598 20.5 5.482 20.5 7.25C20.5 9.018 20.5 9.902 19.95 10.45C19.402 11 18.518 11 16.75 11C14.982 11 14.098 11 13.55 10.45C13 9.902 13 9.018 13 7.25ZM13 17.757C13 15.989 13 15.105 13.55 14.557C14.098 14.007 14.982 14.007 16.75 14.007C18.518 14.007 19.402 14.007 19.95 14.557C20.5 15.105 20.5 15.989 20.5 17.757C20.5 19.525 20.5 20.409 19.95 20.957C19.402 21.507 18.518 21.507 16.75 21.507C14.982 21.507 14.098 21.507 13.55 20.957C13 20.409 13 19.525 13 17.757Z" stroke="currentColor" stroke-width="1.5" stroke-linecap="round" stroke-linejoin="round"/>
</svg>
