<svg width="100%" height="100%" viewBox="0 0 16 16" fill="none" xmlns="http://www.w3.org/2000/svg">
<path d="M5.00301 12.5714H10.9971V13.7143H5.00301V12.5714ZM6.20183 14.8571H9.7983V16H6.20183V14.8571ZM8.00007 0C6.41033 0 4.8857 0.602039 3.76159 1.67368C2.63748 2.74531 2.00595 4.19876 2.00595 5.71429C1.96542 6.54476 2.13229 7.37255 2.49285 8.12954C2.85341 8.88654 3.39735 9.5511 4.07992 10.0686C4.67933 10.6 5.00301 10.9029 5.00301 11.4286H6.20183C6.20183 10.3771 5.53649 9.78857 4.88912 9.22286C4.32889 8.81387 3.88239 8.28016 3.58875 7.66848C3.2951 7.0568 3.16326 6.38581 3.20478 5.71429C3.20478 4.50187 3.70999 3.33911 4.60928 2.4818C5.50858 1.62449 6.72828 1.14286 8.00007 1.14286C9.27186 1.14286 10.4916 1.62449 11.3908 2.4818C12.2901 3.33911 12.7954 4.50187 12.7954 5.71429C12.8362 6.38631 12.7034 7.05762 12.4087 7.66933C12.114 8.28105 11.6663 8.81448 11.105 9.22286C10.4636 9.79429 9.7983 10.3657 9.7983 11.4286H10.9971C10.9971 10.9029 11.3148 10.6 11.9202 10.0629C12.6023 9.54627 13.146 8.88269 13.5066 8.12669C13.8671 7.37069 14.0342 6.54388 13.9942 5.71429C13.9942 4.96388 13.8391 4.22081 13.5379 3.52752C13.2367 2.83423 12.7951 2.2043 12.2385 1.67368C11.6819 1.14306 11.0212 0.722144 10.2939 0.434974C9.56667 0.147804 8.78722 0 8.00007 0Z" fill="currentColor"/>
</svg>
