<svg width="32" height="32" viewBox="0 0 32 32" fill="none" xmlns="http://www.w3.org/2000/svg">
<path d="M14.998 23.996C10.5808 23.996 7 20.4152 7 15.998M14.998 23.996C16.7924 23.996 18.247 20.4152 18.247 15.998C18.247 11.5808 16.7924 8 14.998 8M14.998 23.996C13.2036 23.996 11.749 20.4152 11.749 15.998C11.749 11.5808 13.2036 8 14.998 8M7 15.998C7 11.5808 10.5808 8 14.998 8M7 15.998H22.996C22.996 11.5808 19.4152 8 14.998 8" stroke="currentColor" stroke-width="2" stroke-miterlimit="10" stroke-linecap="round" stroke-linejoin="round"/>
<path d="M22.4997 19L22.5 21.5002M22.5 21.5002L22.5003 24M22.5 21.5002L20 21.5M22.5 21.5002L25 21.5003" stroke="currentColor" stroke-width="2" stroke-miterlimit="10" stroke-linecap="round" stroke-linejoin="round"/>
</svg>
