<svg width="26" height="26" viewBox="0 0 26 26" fill="none" xmlns="http://www.w3.org/2000/svg">
  <defs>
    <linearGradient id="seeOnMeGradient" x1="5" y1="4" x2="20" y2="21.5" gradientUnits="userSpaceOnUse">
      <stop offset="0" stop-color="#FE11D2"/>
      <stop offset="1" stop-color="#0247FF"/>
    </linearGradient>
  </defs>
  <path d="M16.6483 6.73762C16.6767 6.66741 16.7254 6.60729 16.7882 6.56495C16.851 6.52262 16.925 6.5 17.0008 6.5C17.0765 6.5 17.1505 6.52262 17.2133 6.56495C17.2761 6.60729 17.3248 6.66741 17.3532 6.73762L17.5437 7.19506C17.862 7.97126 18.466 8.59582 19.231 8.94008L19.7695 9.18004C19.8383 9.2119 19.8966 9.26279 19.9374 9.32671C19.9783 9.39062 20 9.46489 20 9.54075C20 9.6166 19.9783 9.69087 19.9374 9.75479C19.8966 9.8187 19.8383 9.86959 19.7695 9.90145L19.1995 10.1549C18.4536 10.4896 17.8602 11.0916 17.5362 11.8422L17.351 12.2666C17.3222 12.3357 17.2735 12.3948 17.2112 12.4363C17.1489 12.4778 17.0757 12.5 17.0008 12.5C16.9259 12.5 16.8527 12.4778 16.7904 12.4363C16.728 12.3948 16.6794 12.3357 16.6506 12.2666L16.4661 11.8429C16.1419 11.0918 15.5479 10.4895 14.8013 10.1549L14.2314 9.90145C14.1623 9.86968 14.1038 9.81879 14.0628 9.75479C14.0218 9.69079 14 9.61638 14 9.54037C14 9.46436 14.0218 9.38995 14.0628 9.32595C14.1038 9.26196 14.1623 9.21106 14.2314 9.1793L14.7698 8.93933C15.5349 8.59559 16.139 7.97158 16.4578 7.19581L16.6483 6.73762Z" fill="url(#seeOnMeGradient)"/>
  <path d="M11.7655 4.15841C11.7845 4.11161 11.817 4.07153 11.8588 4.0433C11.9007 4.01508 11.95 4 12.0005 4C12.051 4 12.1003 4.01508 12.1422 4.0433C12.1841 4.07153 12.2166 4.11161 12.2355 4.15841L12.3625 4.46337C12.5747 4.98084 12.9773 5.39722 13.4873 5.62672L13.8463 5.7867C13.8922 5.80793 13.9311 5.84186 13.9583 5.88447C13.9855 5.92708 14 5.97659 14 6.02716C14 6.07773 13.9855 6.12725 13.9583 6.16986C13.9311 6.21247 13.8922 6.24639 13.8463 6.26763L13.4663 6.43661C12.9691 6.65974 12.5735 7.06107 12.3575 7.56146L12.234 7.84442C12.2148 7.8905 12.1823 7.92986 12.1408 7.95754C12.0993 7.98523 12.0504 8 12.0005 8C11.9506 8 11.9018 7.98523 11.8602 7.95754C11.8187 7.92986 11.7863 7.8905 11.767 7.84442L11.6441 7.56196C11.4279 7.0612 11.0319 6.65966 10.5342 6.43661L10.1542 6.26763C10.1082 6.24646 10.0692 6.21252 10.0419 6.16986C10.0145 6.12719 10 6.07759 10 6.02691C10 5.97624 10.0145 5.92663 10.0419 5.88397C10.0692 5.8413 10.1082 5.80737 10.1542 5.7862L10.5132 5.62622C11.0232 5.39706 11.426 4.98106 11.6386 4.46387L11.7655 4.15841Z" fill="url(#seeOnMeGradient)"/>
  <path d="M9.85526 10.9356C9.90733 10.8069 9.99665 10.6967 10.1118 10.6191C10.2269 10.5415 10.3626 10.5 10.5014 10.5C10.6403 10.5 10.776 10.5415 10.8911 10.6191C11.0062 10.6967 11.0955 10.8069 11.1476 10.9356L11.4968 11.7743C12.0804 13.1973 13.1876 14.3423 14.5902 14.9735L15.5773 15.4134C15.7036 15.4718 15.8104 15.5651 15.8853 15.6823C15.9602 15.7995 16 15.9356 16 16.0747C16 16.2138 15.9602 16.3499 15.8853 16.4671C15.8104 16.5843 15.7036 16.6776 15.5773 16.736L14.5325 17.2007C13.165 17.8143 12.077 18.9179 11.4831 20.294L11.1435 21.0722C11.0906 21.1989 11.0015 21.3071 10.8872 21.3832C10.773 21.4594 10.6387 21.5 10.5014 21.5C10.3641 21.5 10.2299 21.4594 10.1157 21.3832C10.0014 21.3071 9.91224 21.1989 9.85938 21.0722L9.52117 20.2954C8.92681 18.9183 7.83777 17.8141 6.46903 17.2007L5.42415 16.736C5.29755 16.6778 5.19031 16.5844 5.11513 16.4671C5.03996 16.3498 5 16.2134 5 16.074C5 15.9347 5.03996 15.7982 5.11513 15.6809C5.19031 15.5636 5.29755 15.4703 5.42415 15.412L6.41129 14.9721C7.81392 14.3419 8.92153 13.1979 9.50605 11.7757L9.85526 10.9356Z" fill="url(#seeOnMeGradient)"/>
</svg>
