<svg width="24" height="24" viewBox="0 0 24 24" fill="none" xmlns="http://www.w3.org/2000/svg">
<path d="M19.665 8.00098L19.665 5.66798C19.665 4.01098 18.322 2.66798 16.665 2.66798L6.66804 2.66798C5.01104 2.66798 3.66804 4.01098 3.66804 5.66798L3.66804 17.334C3.66804 18.991 5.01104 20.334 6.66804 20.334L16.665 20.334C18.322 20.334 19.665 18.991 19.665 17.334" stroke="currentColor" stroke-width="1.5" stroke-miterlimit="10" stroke-linecap="round" stroke-linejoin="round"/>
<path d="M12.673 13.8951L10.2625 9.72007C9.99628 9.25887 10.1806 8.65376 10.6742 8.36878C11.1678 8.0838 11.7841 8.2267 12.0503 8.68789L13.0145 10.3578L16.3102 9.27311C17.073 9.00405 17.8954 9.28301 18.2743 9.93924L19.253 11.6344C19.4491 11.974 19.5577 12.3573 19.5706 12.755C19.6018 13.7245 19.0617 14.6604 18.1752 15.1723L16.7616 15.9884C15.6359 16.6383 14.2847 16.7319 13.1434 16.2399L12.1774 15.8235C11.7764 15.7155 11.4421 15.4618 11.241 15.1135L10.4326 13.7134" stroke="currentColor" stroke-width="1.5" stroke-miterlimit="10" stroke-linecap="round" stroke-linejoin="round"/>
</svg>
