<svg viewBox="0 0 44 44" fill="none" xmlns="http://www.w3.org/2000/svg">
  <path d="M4.58333 15.0095C4.774 11.1595 5.34417 8.75783 7.05283 7.05283C8.75783 5.34417 11.1595 4.774 15.0095 4.58333M39.4167 15.0095C39.226 11.1595 38.6558 8.75783 36.9472 7.05283C35.2422 5.34417 32.8405 4.774 28.9905 4.58333M28.9905 39.4167C32.8405 39.226 35.2422 38.6558 36.9472 36.9472C38.6558 35.2422 39.226 32.8405 39.4167 28.9905M15.0095 39.4167C11.1595 39.226 8.75783 38.6558 7.05283 36.9472C5.34417 35.2422 4.774 32.8405 4.58333 28.9905M32.0833 31.1667L31.713 29.6102C31.5624 28.9786 31.2468 28.3983 30.7984 27.9286C30.35 27.459 29.785 27.1168 29.161 26.9372L24.75 25.6648V22.9753C26.3927 21.8662 27.5 19.7927 27.5 17.4167C27.5 13.8728 25.036 11 22 11C18.9622 11 16.5 13.8728 16.5 17.4167C16.5 19.7927 17.6055 21.8662 19.25 22.9753V25.6648L14.8665 26.9482C14.2612 27.1254 13.7119 27.4557 13.2716 27.9073C12.8313 28.3588 12.5149 28.9163 12.353 29.5258L11.9167 31.1667" stroke="currentColor" stroke-width="1.5" stroke-linecap="round" stroke-linejoin="round"/>
</svg>
