<svg width="24" height="24" viewBox="0 0 24 24" fill="none" xmlns="http://www.w3.org/2000/svg">
<path d="M7.99999 5.33595H13.333M16 5.33595H18.333C19.99 5.33595 21.333 6.67895 21.333 8.33595V18.3329C21.333 19.9899 19.99 21.3329 18.333 21.3329H5.66699C4.00999 21.3329 2.66699 19.9899 2.66699 18.3329V8.33595C2.66699 6.67895 4.00999 5.33595 5.66699 5.33595M7.99999 8.00095V2.66895M16 8.00095V2.66895M12.599 10.2499L13.35 11.7709L15.029 12.0149C15.577 12.0949 15.795 12.7669 15.399 13.1539L14.184 14.3379L14.471 16.0099C14.565 16.5549 13.992 16.9709 13.502 16.7139L12 15.9239L10.498 16.7129C10.008 16.9699 9.43599 16.5549 9.52899 16.0089L9.81599 14.3369L8.60099 13.1529C8.20499 12.7669 8.42299 12.0939 8.97099 12.0139L10.65 11.7699L11.401 10.2489C11.646 9.75394 12.354 9.75395 12.599 10.2499Z" stroke="currentColor" stroke-width="1.5" stroke-miterlimit="10" stroke-linecap="round" stroke-linejoin="round"/>
</svg>
