<svg width="24" height="24" viewBox="0 0 24 24" fill="none" xmlns="http://www.w3.org/2000/svg">
  <path d="M3 6H21" stroke="#272A32" stroke-width="1.5" stroke-linecap="round" stroke-linejoin="round"/>
  <path d="M8 6V4C8 3.46957 8.21071 2.96086 8.58579 2.58579C8.96086 2.21071 9.46957 2 10 2H14C14.5304 2 15.0391 2.21071 15.4142 2.58579C15.7893 2.96086 16 3.46957 16 4V6" stroke="#272A32" stroke-width="1.5" stroke-linecap="round" stroke-linejoin="round"/>
  <path d="M19 6L18.133 19.142C18.0971 19.6466 17.8713 20.1188 17.501 20.4636C17.1308 20.8083 16.6438 21 16.138 21H7.862C7.3562 21 6.86918 20.8083 6.49895 20.4636C6.12872 20.1188 5.90291 19.6466 5.867 19.142L5 6" stroke="#272A32" stroke-width="1.5" stroke-linecap="round" stroke-linejoin="round"/>
  <path d="M10 11V17M14 11V17" stroke="#272A32" stroke-width="1.5" stroke-linecap="round" stroke-linejoin="round"/>
</svg>
