<svg width="24" height="24" viewBox="0 0 24 24" fill="none" xmlns="http://www.w3.org/2000/svg">
  <path d="M10.3571 14.0812L5.49388 14.0813C4.62523 14.0813 3.92081 13.3768 3.92081 12.5082C3.92081 11.6395 5.01391 9.86546 5.51391 8.86546L6.79439 5.75865C7.0364 4.54687 8.10125 3.6739 9.33723 3.6739L12.53 3.6739C13.1696 3.6739 13.7997 3.82257 14.3719 4.10866C15.7669 4.80617 16.6486 6.2323 16.6486 7.79241L16.6486 10.2799C16.6486 12.261 15.6788 14.1158 14.053 15.2472L12.677 16.2049C12.1973 16.6517 10.1704 20.8655 9.51433 20.8655C8.71412 20.8655 8.09154 20.1699 8.17984 19.3746L8.51391 16.3655" stroke="currentColor" stroke-width="1.5" stroke-miterlimit="10" stroke-linecap="round" stroke-linejoin="round"/>
  <path d="M18.5139 12.8655C19.5139 11.3655 19.5138 7.36546 18.5139 4.86546" stroke="currentColor" stroke-width="1.5" stroke-linecap="round"/>
</svg>
