<svg width="100%" height="100%" overflow="visible" style="display: block;" viewBox="0 0 12.6675 15.2754" fill="none" xmlns="http://www.w3.org/2000/svg">
<g id="Group">
<g id="Vector">
</g>
<path id="Vector_2" d="M9.11504 0.415259C8.87389 0.173957 8.55377 0.0277756 8.21349 0.00357194C7.87321 -0.0206317 7.53562 0.078768 7.26275 0.283509L5.19937 1.83122C4.34222 2.47423 3.33682 2.89081 2.27608 3.04247L0.734037 3.26205C0.216954 3.33643 -0.162004 3.89318 0.0873292 4.4393C0.321787 4.95143 1.06837 6.30151 3.17566 8.49097L0.216246 11.4504C0.148593 11.5157 0.0946304 11.5939 0.0575074 11.6803C0.0203843 11.7667 0.000844031 11.8597 2.67443e-05 11.9537C-0.000790542 12.0478 0.0171315 12.141 0.0527471 12.2281C0.0883628 12.3152 0.140959 12.3942 0.207466 12.4607C0.273973 12.5273 0.35306 12.5799 0.440112 12.6155C0.527163 12.6511 0.620436 12.669 0.714488 12.6682C0.80854 12.6674 0.901488 12.6478 0.987907 12.6107C1.07433 12.5736 1.15249 12.5196 1.21783 12.452L4.17725 9.49255C6.3667 11.5998 7.71679 12.3464 8.22891 12.5809C8.77433 12.8302 9.33179 12.4513 9.40545 11.9342L9.62575 10.3921C9.7774 9.33139 10.194 8.32599 10.837 7.46884L12.384 5.40547C12.5887 5.1326 12.6881 4.79501 12.6639 4.45473C12.6397 4.11444 12.4935 3.79432 12.2522 3.55318L9.11504 0.415259Z" fill="#C6BCB1"/>
</g>
</svg>
