<svg width="24" height="24" viewBox="0 0 24 24" fill="none" xmlns="http://www.w3.org/2000/svg">
<g transform="translate(3.34 2.0) scale(0.9203)">
<path d="M9.41 0.866032L18.07 5.86603V15.866L9.41 20.866L0.75 15.866V5.86603L9.41 0.866032Z" stroke="currentColor" stroke-width="1.63" stroke-linecap="round" stroke-linejoin="round"/>
<path d="M13.41 10.866C13.41 11.9269 12.9886 12.9443 12.2384 13.6945C11.4883 14.4446 10.4709 14.866 9.41 14.866C8.34913 14.866 7.33172 14.4446 6.58157 13.6945C5.83143 12.9443 5.41 11.9269 5.41 10.866C5.41 9.80517 5.83143 8.78775 6.58157 8.0376C7.33172 7.28746 8.34913 6.86603 9.41 6.86603C10.4709 6.86603 11.4883 7.28746 12.2384 8.0376C12.9886 8.78775 13.41 9.80517 13.41 10.866Z" stroke="currentColor" stroke-width="1.63" stroke-linecap="round" stroke-linejoin="round"/>
</g>
</svg>
