<svg width="100%" height="100%" viewBox="0 0 16 16" fill="none" xmlns="http://www.w3.org/2000/svg">
<g transform="translate(0.6672 0.7745)">
<path d="M0.706667 2.83289L0 2.12623L1.97978 0.146446C2.17504 -0.0488158 2.49162 -0.0488153 2.68689 0.146447L4.66667 2.12623L3.96 2.83289L2.88 1.75289C2.61917 2.7814 2.59648 3.85588 2.81368 4.89448C3.03087 5.93308 3.48221 6.90842 4.13333 7.74623L3.42 8.45956C2.28315 7.04123 1.66459 5.27727 1.66667 3.45956C1.66667 2.84623 1.73333 2.24623 1.86667 1.67289L0.706667 2.83289Z" fill="currentColor"/>
</g>
<g transform="translate(5.7936 3.2240)">
<path d="M1.03222 0.583008C1.43732 0.448073 1.64561 0.504721 1.75586 0.56543C1.88279 0.635346 1.99108 0.77187 2.08398 0.979492L2.08496 0.981445L3.51172 4.14063C3.67345 4.49858 4.03008 4.72833 4.42285 4.72852H8.30273L9.47461 8.87402L4.58105 11.0449L0.623045 9.39551L0.909178 8.33105L2.01074 8.48242C2.7864 8.58897 3.37827 7.80289 3.06152 7.08691L0.524412 1.35352L0.523435 1.35156L0.503904 1.28223C0.491845 1.20218 0.506053 1.09148 0.575193 0.963867C0.664592 0.798947 0.82553 0.651877 1.03222 0.583008Z" stroke="currentColor" stroke-width="0.9"/>
</g>
</svg>
