<svg width="54" height="54" viewBox="0 0 54 54" fill="none" xmlns="http://www.w3.org/2000/svg">
<path d="M27.1588 49.7647C26.3118 49.7647 25.5 49.6059 24.7235 49.2882C23.9471 48.9706 23.2588 48.5118 22.6588 47.9118L11.8588 37.0588L13.4471 35.4176C14.0118 34.8529 14.6739 34.4739 15.4334 34.2805C16.1929 34.0871 16.9426 34.0955 17.6824 34.3059L21.1765 35.3118V18C21.1765 17.4 21.3798 16.8974 21.7864 16.4922C22.1929 16.0871 22.6955 15.8838 23.2941 15.8824C23.8927 15.8809 24.396 16.0842 24.804 16.4922C25.212 16.9002 25.4146 17.4028 25.4118 18V40.9235L20.2765 39.4941L25.6765 44.8941C25.8529 45.0706 26.0739 45.2209 26.3393 45.3452C26.6047 45.4694 26.8779 45.5308 27.1588 45.5294H36C37.1647 45.5294 38.1621 45.1151 38.9922 44.2864C39.8224 43.4576 40.2367 42.4602 40.2353 41.2941V32.8235C40.2353 32.2235 40.4386 31.7209 40.8452 31.3158C41.2518 30.9106 41.7544 30.7073 42.3529 30.7059C42.9515 30.7045 43.4548 30.9078 43.8628 31.3158C44.2708 31.7238 44.4734 32.2264 44.4706 32.8235V41.2941C44.4706 43.6235 43.6412 45.6177 41.9824 47.2765C40.3235 48.9353 38.3294 49.7647 36 49.7647H27.1588ZM27.5294 34.9412V26.4706C27.5294 25.8706 27.7327 25.368 28.1393 24.9628C28.5459 24.5576 29.0485 24.3544 29.6471 24.3529C30.2456 24.3515 30.7489 24.5548 31.1569 24.9628C31.5649 25.3708 31.7675 25.8734 31.7647 26.4706V34.9412H27.5294ZM33.8824 34.9412V28.5882C33.8824 27.9882 34.0856 27.4856 34.4922 27.0805C34.8988 26.6753 35.4014 26.472 36 26.4706C36.5986 26.4692 37.1019 26.6725 37.5099 27.0805C37.9179 27.4885 38.1205 27.9911 38.1176 28.5882V34.9412H33.8824ZM48.7059 18H38.1176V14.8235H44.2588C41.9294 12.7765 39.3353 11.2059 36.4765 10.1118C33.6176 9.01765 30.6353 8.47059 27.5294 8.47059C24.4235 8.47059 21.4412 9.01765 18.5824 10.1118C15.7235 11.2059 13.1294 12.7765 10.8 14.8235H16.9412V18H6.35294V7.41176H9.52941V11.7C12.0706 9.61765 14.8765 8.02941 17.9471 6.93529C21.0176 5.84118 24.2118 5.29412 27.5294 5.29412C30.8471 5.29412 34.0412 5.84118 37.1118 6.93529C40.1824 8.02941 42.9882 9.61765 45.5294 11.7V7.41176H48.7059V18Z" fill="#070707"/>
</svg>
