<svg width="24" height="24" viewBox="0 0 24 24" fill="none" xmlns="http://www.w3.org/2000/svg">
  <path d="M13.219 9.64244L18.0822 9.64242C18.9509 9.64242 19.6553 10.3468 19.6553 11.2155C19.6553 12.0841 18.5622 13.8582 18.0622 14.8582L16.7817 17.965C16.5397 19.1768 15.4749 20.0498 14.2389 20.0498L11.0461 20.0498C10.4065 20.0498 9.77638 19.9011 9.20419 19.615C7.80917 18.9175 6.92756 17.4914 6.92756 15.9313L6.92756 13.4437C6.92756 11.4627 7.89734 9.60787 9.52313 8.47647L10.8991 7.5188C11.3788 7.07194 13.4058 2.85822 14.0618 2.85822C14.862 2.85822 15.4846 3.55374 15.3963 4.34906L15.0622 7.35822" stroke="currentColor" stroke-width="1.5" stroke-miterlimit="10" stroke-linecap="round" stroke-linejoin="round"/>
  <path d="M5.06225 10.8582C4.06221 12.3582 4.06233 16.3582 5.06219 18.8582" stroke="currentColor" stroke-width="1.5" stroke-linecap="round"/>
</svg>
