<svg viewBox="0 0 44 44" fill="none" xmlns="http://www.w3.org/2000/svg">
  <path d="M21.5 11C22.8807 11 24 9.88071 24 8.5C24 7.11929 22.8807 6 21.5 6C20.1193 6 19 7.11929 19 8.5C19 9.88071 20.1193 11 21.5 11Z" stroke="currentColor" stroke-width="1.5" stroke-miterlimit="10"/>
  <path d="M17.428 23.8813L17.3254 36.2172C17.3139 36.4391 17.3444 36.6611 17.4152 36.8707C17.4861 37.0802 17.5959 37.2732 17.7384 37.4385C17.8808 37.6038 18.0532 37.7383 18.2456 37.8342C18.4379 37.9301 18.6466 37.9855 18.8595 37.9974C19.0717 38.0098 19.2842 37.9782 19.4846 37.9045C19.685 37.8308 19.8694 37.7163 20.0271 37.5678C20.1848 37.4193 20.3126 37.2397 20.4031 37.0394C20.4937 36.8391 20.5452 36.622 20.5547 36.4008V28.1577C20.5547 28.1577 20.5547 25.8751 21.1608 25.8751H21.3704C22.2157 25.8751 22.5538 28.1648 22.5538 28.1648V28.1577L23.9739 36.6049C24.0492 37.045 24.2893 37.4358 24.6412 37.6915C24.9931 37.9471 25.4281 38.0467 25.8505 37.9682C26.2728 37.8897 26.648 37.6396 26.8933 37.273C27.1387 36.9064 27.2343 36.4532 27.159 36.0131L25.1032 23.8813L24.7719 21.7889C24.5758 20.5137 24.4878 18.4354 24.8057 17.5829C25.0762 16.8502 25.7612 16.5825 26.3745 16.5825H31V8.69085C31 8.24241 30.829 7.81234 30.5246 7.49524C30.2203 7.17815 29.8075 7 29.377 7C28.9466 7 28.5338 7.17815 28.2294 7.49524C27.9251 7.81234 27.7541 8.24241 27.7541 8.69085V13.2008H17.1172C16.2949 13.2008 15.5564 13.7042 15.2557 14.4696L13 20.2119L14.1417 25.7423C14.3245 26.1483 14.6547 26.462 15.0595 26.6144C15.4643 26.7667 15.9106 26.7453 16.3003 26.5549C16.69 26.3644 16.9911 26.0204 17.1373 25.5987C17.2836 25.1769 17.2631 24.7119 17.0802 24.3059L16.0872 20.2119L17.3279 16.5813C17.7213 16.5813 17.5983 17.2415 17.7256 17.5829C18.0434 18.4354 17.9555 20.5137 17.7594 21.7889L17.428 23.8813Z" stroke="currentColor" stroke-width="1.5" stroke-miterlimit="10"/>
  <path d="M7 11.3719C7.15326 8.28049 7.61158 6.35201 8.98505 4.98294C10.3556 3.61093 12.2861 3.1531 15.3808 3M37 11.3719C36.8467 8.28049 36.3884 6.35201 35.0149 4.98294C33.6444 3.61093 31.7139 3.1531 28.6192 3M28.6192 40C31.7139 39.8469 33.6444 39.3891 35.0149 38.0171C36.3884 36.648 36.8467 34.7195 37 31.6281M15.3808 40C12.2861 39.8469 10.3556 39.3891 8.98505 38.0171C7.61158 36.648 7.15326 34.7195 7 31.6281" stroke="currentColor" stroke-width="1.5" stroke-linecap="round" stroke-linejoin="round"/>
</svg>
