<svg width="48" height="48" viewBox="0 0 48 48" fill="none" xmlns="http://www.w3.org/2000/svg">
<path d="M6 14H9.56C13.864 14 16.016 14 17.76 14.912C18.5046 15.3026 19.1829 15.8081 19.77 16.41C21.146 17.816 21.764 19.878 23 24C24.236 28.122 24.856 30.184 26.23 31.59C26.818 32.192 27.496 32.698 28.242 33.088C29.984 34 32.136 34 36.442 34H42M42 34L36 28M42 34L36 40" stroke="black"/>
<path fill-rule="evenodd" clip-rule="evenodd" d="M42.708 13.293L36.708 7.29297L35.292 8.70897L39.586 13.001H36.392C34.282 13.001 32.632 13.001 31.292 13.119C29.928 13.239 28.81 13.487 27.778 14.027C26.8922 14.4909 26.0898 15.0992 25.404 15.827C25.656 16.3283 25.882 16.831 26.082 17.335L26.304 17.917C26.49 17.6271 26.7044 17.3564 26.944 17.109C27.4582 16.5825 28.0521 16.1404 28.704 15.799C29.416 15.427 30.244 15.219 31.468 15.111C32.708 15.001 34.272 15.001 36.44 15.001H39.586L35.292 19.293L36.708 20.707L42.708 14.707L43.414 14.001L42.708 13.293ZM20.596 32.173C20.2523 31.4966 19.9517 30.7992 19.696 30.085C19.51 30.3748 19.2956 30.6455 19.056 30.893C18.5418 31.4194 17.9479 31.8615 17.296 32.203C16.584 32.575 15.756 32.783 14.532 32.891C13.292 33.001 11.73 33.001 9.56 33.001H6V35.001H9.608C11.718 35.001 13.368 35.001 14.708 34.883C16.072 34.763 17.19 34.515 18.222 33.975C19.1078 33.511 19.9102 32.9007 20.596 32.173Z" fill="black"/>
</svg>
