<svg width="554" height="96" viewBox="0 0 554 96" fill="none" xmlns="http://www.w3.org/2000/svg">
<path d="M45 64.5C45 64.8978 44.842 65.2794 44.5607 65.5607C44.2794 65.842 43.8978 66 43.5 66H33C32.2044 66 31.4413 65.6839 30.8787 65.1213C30.3161 64.5587 30 63.7957 30 63V33C30 32.2044 30.3161 31.4413 30.8787 30.8787C31.4413 30.3161 32.2044 30 33 30H43.5C43.8978 30 44.2794 30.158 44.5607 30.4393C44.842 30.7206 45 31.1022 45 31.5C45 31.8978 44.842 32.2794 44.5607 32.5607C44.2794 32.842 43.8978 33 43.5 33H33V63H43.5C43.8978 63 44.2794 63.158 44.5607 63.4393C44.842 63.7206 45 64.1022 45 64.5ZM65.5612 46.9387L58.0613 39.4387C57.7798 39.1573 57.398 38.9992 57 38.9992C56.602 38.9992 56.2202 39.1573 55.9387 39.4387C55.6573 39.7202 55.4992 40.102 55.4992 40.5C55.4992 40.898 55.6573 41.2798 55.9387 41.5613L60.8794 46.5H43.5C43.1022 46.5 42.7206 46.658 42.4393 46.9393C42.158 47.2206 42 47.6022 42 48C42 48.3978 42.158 48.7794 42.4393 49.0607C42.7206 49.342 43.1022 49.5 43.5 49.5H60.8794L55.9387 54.4387C55.6573 54.7202 55.4992 55.102 55.4992 55.5C55.4992 55.898 55.6573 56.2798 55.9387 56.5613C56.2202 56.8427 56.602 57.0008 57 57.0008C57.398 57.0008 57.7798 56.8427 58.0613 56.5613L65.5612 49.0613C65.7007 48.9219 65.8114 48.7565 65.8868 48.5744C65.9623 48.3923 66.0012 48.1971 66.0012 48C66.0012 47.8029 65.9623 47.6077 65.8868 47.4256C65.8114 47.2435 65.7007 47.0781 65.5612 46.9387Z" fill="black"/>
<path d="M90.4659 58V37.6364H92.9318V55.8125H102.398V58H90.4659ZM112.102 58.3182C110.723 58.3182 109.514 57.9901 108.473 57.3338C107.439 56.6776 106.63 55.7595 106.047 54.5795C105.47 53.3996 105.182 52.0208 105.182 50.4432C105.182 48.8523 105.47 47.4635 106.047 46.277C106.63 45.0904 107.439 44.169 108.473 43.5128C109.514 42.8565 110.723 42.5284 112.102 42.5284C113.481 42.5284 114.688 42.8565 115.722 43.5128C116.762 44.169 117.571 45.0904 118.148 46.277C118.731 47.4635 119.023 48.8523 119.023 50.4432C119.023 52.0208 118.731 53.3996 118.148 54.5795C117.571 55.7595 116.762 56.6776 115.722 57.3338C114.688 57.9901 113.481 58.3182 112.102 58.3182ZM112.102 56.2102C113.15 56.2102 114.011 55.9418 114.688 55.4048C115.364 54.8679 115.864 54.1619 116.189 53.2869C116.514 52.4119 116.676 51.464 116.676 50.4432C116.676 49.4223 116.514 48.4711 116.189 47.5895C115.864 46.7079 115.364 45.9953 114.688 45.4517C114.011 44.9081 113.15 44.6364 112.102 44.6364C111.055 44.6364 110.193 44.9081 109.517 45.4517C108.841 45.9953 108.34 46.7079 108.016 47.5895C107.691 48.4711 107.528 49.4223 107.528 50.4432C107.528 51.464 107.691 52.4119 108.016 53.2869C108.34 54.1619 108.841 54.8679 109.517 55.4048C110.193 55.9418 111.055 56.2102 112.102 56.2102ZM128.77 64.0455C127.636 64.0455 126.662 63.8996 125.846 63.608C125.031 63.3229 124.351 62.9451 123.808 62.4744C123.271 62.0104 122.843 61.5133 122.525 60.983L124.395 59.6705C124.607 59.9489 124.875 60.267 125.2 60.625C125.525 60.9896 125.969 61.3045 126.532 61.5696C127.102 61.8414 127.848 61.9773 128.77 61.9773C130.002 61.9773 131.02 61.679 131.822 61.0824C132.624 60.4858 133.025 59.5511 133.025 58.2784V55.1761H132.826C132.654 55.4545 132.409 55.7992 132.091 56.2102C131.779 56.6146 131.328 56.9759 130.738 57.294C130.155 57.6056 129.366 57.7614 128.372 57.7614C127.139 57.7614 126.032 57.4697 125.051 56.8864C124.076 56.303 123.304 55.4545 122.734 54.3409C122.171 53.2273 121.889 51.875 121.889 50.2841C121.889 48.7197 122.164 47.3575 122.714 46.1974C123.264 45.0308 124.03 44.1293 125.011 43.4929C125.992 42.8499 127.126 42.5284 128.412 42.5284C129.406 42.5284 130.195 42.6941 130.778 43.0256C131.368 43.3504 131.819 43.7216 132.13 44.1392C132.449 44.5502 132.694 44.8883 132.866 45.1534H133.105V42.7273H135.372V58.4375C135.372 59.75 135.074 60.8172 134.477 61.6392C133.887 62.4678 133.092 63.0743 132.091 63.4588C131.096 63.8499 129.989 64.0455 128.77 64.0455ZM128.69 55.6534C129.631 55.6534 130.427 55.438 131.076 55.0071C131.726 54.5762 132.22 53.9564 132.558 53.1477C132.896 52.339 133.065 51.3712 133.065 50.2443C133.065 49.1439 132.899 48.1728 132.568 47.331C132.236 46.4891 131.746 45.8295 131.096 45.3523C130.447 44.875 129.645 44.6364 128.69 44.6364C127.696 44.6364 126.867 44.8883 126.204 45.392C125.548 45.8958 125.054 46.572 124.723 47.4205C124.398 48.2689 124.235 49.2102 124.235 50.2443C124.235 51.3049 124.401 52.2429 124.733 53.0582C125.071 53.867 125.568 54.5033 126.224 54.9673C126.887 55.4247 127.709 55.6534 128.69 55.6534ZM153.747 58.3182C152.368 58.3182 151.158 57.9901 150.118 57.3338C149.083 56.6776 148.275 55.7595 147.691 54.5795C147.115 53.3996 146.826 52.0208 146.826 50.4432C146.826 48.8523 147.115 47.4635 147.691 46.277C148.275 45.0904 149.083 44.169 150.118 43.5128C151.158 42.8565 152.368 42.5284 153.747 42.5284C155.126 42.5284 156.332 42.8565 157.366 43.5128C158.407 44.169 159.216 45.0904 159.792 46.277C160.376 47.4635 160.667 48.8523 160.667 50.4432C160.667 52.0208 160.376 53.3996 159.792 54.5795C159.216 55.7595 158.407 56.6776 157.366 57.3338C156.332 57.9901 155.126 58.3182 153.747 58.3182ZM153.747 56.2102C154.794 56.2102 155.656 55.9418 156.332 55.4048C157.008 54.8679 157.509 54.1619 157.833 53.2869C158.158 52.4119 158.321 51.464 158.321 50.4432C158.321 49.4223 158.158 48.4711 157.833 47.5895C157.509 46.7079 157.008 45.9953 156.332 45.4517C155.656 44.9081 154.794 44.6364 153.747 44.6364C152.699 44.6364 151.838 44.9081 151.162 45.4517C150.485 45.9953 149.985 46.7079 149.66 47.5895C149.335 48.4711 149.173 49.4223 149.173 50.4432C149.173 51.464 149.335 52.4119 149.66 53.2869C149.985 54.1619 150.485 54.8679 151.162 55.4048C151.838 55.9418 152.699 56.2102 153.747 56.2102ZM173.874 51.7557V42.7273H176.221V58H173.874V55.4148H173.715C173.357 56.1903 172.8 56.8499 172.045 57.3935C171.289 57.9304 170.335 58.1989 169.181 58.1989C168.227 58.1989 167.378 57.9901 166.636 57.5724C165.893 57.1482 165.31 56.5118 164.886 55.6634C164.461 54.8082 164.249 53.7311 164.249 52.4318V42.7273H166.596V52.2727C166.596 53.3864 166.907 54.2746 167.531 54.9375C168.16 55.6004 168.962 55.9318 169.937 55.9318C170.52 55.9318 171.113 55.7827 171.717 55.4844C172.326 55.1861 172.837 54.7287 173.248 54.1122C173.665 53.4957 173.874 52.7102 173.874 51.7557ZM187.161 42.7273V44.7159H179.246V42.7273H187.161ZM181.553 39.0682H183.9V53.625C183.9 54.2879 183.996 54.785 184.188 55.1165C184.387 55.4413 184.639 55.66 184.944 55.7727C185.255 55.8788 185.583 55.9318 185.928 55.9318C186.186 55.9318 186.399 55.9186 186.564 55.892C186.73 55.8589 186.863 55.8324 186.962 55.8125L187.439 57.9205C187.28 57.9801 187.058 58.0398 186.773 58.0994C186.488 58.1657 186.127 58.1989 185.689 58.1989C185.026 58.1989 184.377 58.0563 183.74 57.7713C183.111 57.4863 182.587 57.0521 182.169 56.4688C181.758 55.8854 181.553 55.1496 181.553 54.2614V39.0682Z" fill="black"/>
</svg>
