<svg width="554" height="96" viewBox="0 0 554 96" fill="none" xmlns="http://www.w3.org/2000/svg">
<path d="M64.5 33H57V31.5C57 30.3065 56.5259 29.1619 55.682 28.318C54.8381 27.4741 53.6935 27 52.5 27H43.5C42.3065 27 41.1619 27.4741 40.318 28.318C39.4741 29.1619 39 30.3065 39 31.5V33H31.5C31.1022 33 30.7206 33.158 30.4393 33.4393C30.158 33.7206 30 34.1022 30 34.5C30 34.8978 30.158 35.2794 30.4393 35.5607C30.7206 35.842 31.1022 36 31.5 36H33V63C33 63.7957 33.3161 64.5587 33.8787 65.1213C34.4413 65.6839 35.2044 66 36 66H60C60.7956 66 61.5587 65.6839 62.1213 65.1213C62.6839 64.5587 63 63.7957 63 63V36H64.5C64.8978 36 65.2794 35.842 65.5607 35.5607C65.842 35.2794 66 34.8978 66 34.5C66 34.1022 65.842 33.7206 65.5607 33.4393C65.2794 33.158 64.8978 33 64.5 33ZM42 31.5C42 31.1022 42.158 30.7206 42.4393 30.4393C42.7206 30.158 43.1022 30 43.5 30H52.5C52.8978 30 53.2794 30.158 53.5607 30.4393C53.842 30.7206 54 31.1022 54 31.5V33H42V31.5ZM60 63H36V36H60V63ZM45 43.5V55.5C45 55.8978 44.842 56.2794 44.5607 56.5607C44.2794 56.842 43.8978 57 43.5 57C43.1022 57 42.7206 56.842 42.4393 56.5607C42.158 56.2794 42 55.8978 42 55.5V43.5C42 43.1022 42.158 42.7206 42.4393 42.4393C42.7206 42.158 43.1022 42 43.5 42C43.8978 42 44.2794 42.158 44.5607 42.4393C44.842 42.7206 45 43.1022 45 43.5ZM54 43.5V55.5C54 55.8978 53.842 56.2794 53.5607 56.5607C53.2794 56.842 52.8978 57 52.5 57C52.1022 57 51.7206 56.842 51.4393 56.5607C51.158 56.2794 51 55.8978 51 55.5V43.5C51 43.1022 51.158 42.7206 51.4393 42.4393C51.7206 42.158 52.1022 42 52.5 42C52.8978 42 53.2794 42.158 53.5607 42.4393C53.842 42.7206 54 43.1022 54 43.5Z" fill="black"/>
<path d="M91.3011 58H88.7159L96.1932 37.6364H98.7386L106.216 58H103.631L97.5455 40.858H97.3864L91.3011 58ZM92.2557 50.0455H102.676V52.233H92.2557V50.0455ZM109.07 58V42.7273H111.337V45.0341H111.496C111.774 44.2784 112.278 43.6652 113.007 43.1946C113.736 42.724 114.558 42.4886 115.473 42.4886C115.645 42.4886 115.861 42.4919 116.119 42.4986C116.378 42.5052 116.573 42.5152 116.706 42.5284V44.9148C116.626 44.8949 116.444 44.8651 116.159 44.8253C115.881 44.7789 115.586 44.7557 115.274 44.7557C114.532 44.7557 113.869 44.9115 113.286 45.223C112.709 45.5279 112.251 45.9522 111.913 46.4957C111.582 47.0327 111.416 47.6458 111.416 48.3352V58H109.07ZM125.227 58.3182C123.795 58.3182 122.563 57.9801 121.528 57.304C120.494 56.6278 119.699 55.6965 119.142 54.5099C118.585 53.3234 118.307 51.9678 118.307 50.4432C118.307 48.892 118.592 47.5232 119.162 46.3366C119.739 45.1435 120.541 44.2121 121.568 43.5426C122.602 42.8665 123.809 42.5284 125.188 42.5284C126.261 42.5284 127.229 42.7273 128.091 43.125C128.953 43.5227 129.659 44.0795 130.209 44.7955C130.759 45.5114 131.1 46.3466 131.233 47.3011H128.886C128.707 46.6051 128.31 45.9886 127.693 45.4517C127.083 44.9081 126.261 44.6364 125.227 44.6364C124.313 44.6364 123.51 44.875 122.821 45.3523C122.138 45.8229 121.605 46.4891 121.22 47.3509C120.842 48.206 120.653 49.2102 120.653 50.3636C120.653 51.5436 120.839 52.571 121.21 53.446C121.588 54.321 122.118 55.0005 122.801 55.4844C123.491 55.9683 124.299 56.2102 125.227 56.2102C125.837 56.2102 126.391 56.1042 126.888 55.892C127.385 55.6799 127.806 55.375 128.151 54.9773C128.495 54.5795 128.741 54.1023 128.886 53.5455H131.233C131.1 54.447 130.772 55.259 130.249 55.9815C129.732 56.6974 129.045 57.2675 128.19 57.6918C127.342 58.1094 126.354 58.3182 125.227 58.3182ZM137.01 48.8125V58H134.663V37.6364H137.01V45.1136H137.209C137.567 44.3248 138.104 43.6984 138.82 43.2344C139.542 42.7637 140.503 42.5284 141.703 42.5284C142.744 42.5284 143.655 42.7372 144.438 43.1548C145.22 43.5658 145.826 44.1989 146.257 45.054C146.695 45.9025 146.913 46.983 146.913 48.2955V58H144.567V48.4545C144.567 47.2415 144.252 46.3035 143.622 45.6406C142.999 44.9711 142.134 44.6364 141.027 44.6364C140.258 44.6364 139.569 44.7988 138.959 45.1236C138.356 45.4484 137.878 45.9223 137.527 46.5455C137.182 47.1686 137.01 47.9242 137.01 48.8125ZM151.206 58V42.7273H153.553V58H151.206ZM152.4 40.1818C151.942 40.1818 151.548 40.026 151.216 39.7145C150.891 39.4029 150.729 39.0284 150.729 38.5909C150.729 38.1534 150.891 37.7789 151.216 37.4673C151.548 37.1558 151.942 37 152.4 37C152.857 37 153.248 37.1558 153.573 37.4673C153.904 37.7789 154.07 38.1534 154.07 38.5909C154.07 39.0284 153.904 39.4029 153.573 39.7145C153.248 40.026 152.857 40.1818 152.4 40.1818ZM170.339 42.7273L164.692 58H162.305L156.658 42.7273H159.203L163.419 54.8977H163.578L167.794 42.7273H170.339ZM179.293 58.3182C177.822 58.3182 176.552 57.9934 175.485 57.3438C174.424 56.6875 173.606 55.7727 173.029 54.5994C172.459 53.4195 172.174 52.0473 172.174 50.483C172.174 48.9186 172.459 47.5398 173.029 46.3466C173.606 45.1468 174.408 44.2121 175.435 43.5426C176.469 42.8665 177.676 42.5284 179.055 42.5284C179.85 42.5284 180.636 42.661 181.411 42.9261C182.187 43.1913 182.893 43.6222 183.529 44.2188C184.165 44.8087 184.673 45.5909 185.05 46.5653C185.428 47.5398 185.617 48.7396 185.617 50.1648V51.1591H173.844V49.1307H183.231C183.231 48.2689 183.058 47.5 182.714 46.8239C182.376 46.1477 181.892 45.6141 181.262 45.223C180.639 44.8319 179.903 44.6364 179.055 44.6364C178.12 44.6364 177.311 44.8684 176.629 45.3324C175.952 45.7898 175.432 46.3864 175.067 47.1222C174.703 47.858 174.521 48.6468 174.521 49.4886V50.8409C174.521 51.9943 174.719 52.9721 175.117 53.7741C175.522 54.5696 176.082 55.1761 176.798 55.5938C177.513 56.0047 178.345 56.2102 179.293 56.2102C179.91 56.2102 180.467 56.1241 180.964 55.9517C181.468 55.7727 181.902 55.5076 182.266 55.1562C182.631 54.7983 182.913 54.3542 183.112 53.8239L185.379 54.4602C185.14 55.2292 184.739 55.9053 184.175 56.4886C183.612 57.0653 182.916 57.5161 182.087 57.8409C181.259 58.1591 180.327 58.3182 179.293 58.3182Z" fill="black"/>
</svg>
