<svg width="554" height="96" viewBox="0 0 554 96" fill="none" xmlns="http://www.w3.org/2000/svg">
<path d="M67.2975 63.7512C64.4419 58.8143 60.0413 55.2743 54.9056 53.5962C57.446 52.0839 59.4196 49.7796 60.5235 47.0371C61.6275 44.2945 61.8006 41.2654 61.0164 38.415C60.2322 35.5645 58.5339 33.0503 56.1825 31.2584C53.831 29.4665 50.9564 28.4961 48 28.4961C45.0436 28.4961 42.169 29.4665 39.8176 31.2584C37.4661 33.0503 35.7679 35.5645 34.9837 38.415C34.1994 41.2654 34.3726 44.2945 35.4765 47.0371C36.5804 49.7796 38.5541 52.0839 41.0944 53.5962C35.9588 55.2724 31.5581 58.8124 28.7025 63.7512C28.5978 63.9219 28.5283 64.1119 28.4982 64.31C28.4681 64.508 28.478 64.7101 28.5273 64.9042C28.5765 65.0984 28.6641 65.2807 28.785 65.4404C28.9059 65.6002 29.0575 65.7341 29.2309 65.8343C29.4044 65.9345 29.5962 65.9989 29.7949 66.0238C29.9937 66.0487 30.1954 66.0335 30.3882 65.9791C30.581 65.9248 30.7609 65.8324 30.9174 65.7073C31.0739 65.5823 31.2038 65.4272 31.2994 65.2512C34.8319 59.1462 41.0756 55.5012 48 55.5012C54.9244 55.5012 61.1681 59.1462 64.7006 65.2512C64.7962 65.4272 64.9261 65.5823 65.0826 65.7073C65.2391 65.8324 65.4191 65.9248 65.6119 65.9791C65.8046 66.0335 66.0064 66.0487 66.2051 66.0238C66.4039 65.9989 66.5956 65.9345 66.7691 65.8343C66.9425 65.7341 67.0942 65.6002 67.215 65.4404C67.3359 65.2807 67.4235 65.0984 67.4728 64.9042C67.522 64.7101 67.5319 64.508 67.5018 64.31C67.4717 64.1119 67.4022 63.9219 67.2975 63.7512ZM37.5 42.0012C37.5 39.9245 38.1158 37.8944 39.2696 36.1677C40.4233 34.441 42.0632 33.0952 43.9818 32.3005C45.9005 31.5057 48.0117 31.2978 50.0485 31.7029C52.0853 32.1081 53.9562 33.1081 55.4246 34.5766C56.8931 36.045 57.8931 37.9159 58.2983 39.9527C58.7034 41.9895 58.4955 44.1007 57.7008 46.0194C56.906 47.938 55.5602 49.5779 53.8335 50.7316C52.1068 51.8854 50.0767 52.5012 48 52.5012C45.2162 52.4982 42.5472 51.391 40.5787 49.4225C38.6102 47.454 37.503 44.7851 37.5 42.0012Z" fill="black"/>
<path d="M90.4659 37.6364H93.4091L100.33 54.5398H100.568L107.489 37.6364H110.432V58H108.125V42.5284H107.926L101.562 58H99.3352L92.9716 42.5284H92.7727V58H90.4659V37.6364ZM116.569 63.7273C116.172 63.7273 115.817 63.6941 115.505 63.6278C115.194 63.5682 114.978 63.5085 114.859 63.4489L115.456 61.3807C116.026 61.5265 116.529 61.5795 116.967 61.5398C117.404 61.5 117.792 61.3045 118.13 60.9531C118.475 60.6084 118.79 60.0483 119.075 59.2727L119.512 58.0795L113.865 42.7273H116.41L120.626 54.8977H120.785L125.001 42.7273H127.547L121.064 60.2273C120.772 61.0161 120.411 61.669 119.98 62.1861C119.549 62.7098 119.048 63.0975 118.478 63.3494C117.915 63.6013 117.279 63.7273 116.569 63.7273ZM150.888 58.358C149.92 58.358 149.042 58.1757 148.253 57.8111C147.464 57.4399 146.838 56.9062 146.374 56.2102C145.91 55.5076 145.678 54.6591 145.678 53.6648C145.678 52.7898 145.85 52.0805 146.195 51.5369C146.54 50.9867 147 50.5559 147.577 50.2443C148.154 49.9328 148.79 49.7008 149.486 49.5483C150.189 49.3892 150.895 49.2633 151.604 49.1705C152.532 49.0511 153.284 48.9616 153.861 48.902C154.444 48.8357 154.869 48.7263 155.134 48.5739C155.406 48.4214 155.542 48.1562 155.542 47.7784V47.6989C155.542 46.7178 155.273 45.9555 154.736 45.4119C154.206 44.8684 153.4 44.5966 152.32 44.5966C151.2 44.5966 150.321 44.8419 149.685 45.3324C149.049 45.8229 148.601 46.3466 148.343 46.9034L146.115 46.108C146.513 45.1799 147.043 44.4574 147.706 43.9403C148.376 43.4167 149.105 43.0521 149.894 42.8466C150.689 42.6345 151.471 42.5284 152.24 42.5284C152.731 42.5284 153.294 42.5881 153.931 42.7074C154.574 42.8201 155.194 43.0554 155.79 43.4134C156.393 43.7713 156.894 44.3116 157.292 45.0341C157.689 45.7566 157.888 46.7244 157.888 47.9375V58H155.542V55.9318H155.422C155.263 56.2633 154.998 56.6179 154.627 56.9957C154.256 57.3736 153.762 57.6951 153.145 57.9602C152.529 58.2254 151.776 58.358 150.888 58.358ZM151.246 56.25C152.174 56.25 152.956 56.0677 153.593 55.7031C154.236 55.3385 154.72 54.8679 155.044 54.2912C155.376 53.7145 155.542 53.108 155.542 52.4716V50.3239C155.442 50.4432 155.223 50.5526 154.885 50.652C154.554 50.7448 154.169 50.8277 153.732 50.9006C153.301 50.9669 152.88 51.0265 152.469 51.0795C152.065 51.1259 151.737 51.1657 151.485 51.1989C150.875 51.2784 150.305 51.4077 149.775 51.5866C149.251 51.759 148.827 52.0208 148.502 52.3722C148.184 52.7169 148.025 53.1875 148.025 53.7841C148.025 54.5994 148.326 55.2159 148.929 55.6335C149.539 56.0445 150.311 56.25 151.246 56.25ZM168.376 58.3182C166.944 58.3182 165.711 57.9801 164.677 57.304C163.643 56.6278 162.847 55.6965 162.29 54.5099C161.734 53.3234 161.455 51.9678 161.455 50.4432C161.455 48.892 161.74 47.5232 162.31 46.3366C162.887 45.1435 163.689 44.2121 164.717 43.5426C165.751 42.8665 166.957 42.5284 168.336 42.5284C169.41 42.5284 170.378 42.7273 171.239 43.125C172.101 43.5227 172.807 44.0795 173.357 44.7955C173.907 45.5114 174.249 46.3466 174.381 47.3011H172.035C171.856 46.6051 171.458 45.9886 170.842 45.4517C170.232 44.9081 169.41 44.6364 168.376 44.6364C167.461 44.6364 166.659 44.875 165.969 45.3523C165.287 45.8229 164.753 46.4891 164.369 47.3509C163.991 48.206 163.802 49.2102 163.802 50.3636C163.802 51.5436 163.987 52.571 164.359 53.446C164.737 54.321 165.267 55.0005 165.95 55.4844C166.639 55.9683 167.448 56.2102 168.376 56.2102C168.986 56.2102 169.539 56.1042 170.036 55.892C170.533 55.6799 170.954 55.375 171.299 54.9773C171.644 54.5795 171.889 54.1023 172.035 53.5455H174.381C174.249 54.447 173.921 55.259 173.397 55.9815C172.88 56.6974 172.194 57.2675 171.339 57.6918C170.49 58.1094 169.503 58.3182 168.376 58.3182ZM184.016 58.3182C182.585 58.3182 181.352 57.9801 180.317 57.304C179.283 56.6278 178.488 55.6965 177.931 54.5099C177.374 53.3234 177.096 51.9678 177.096 50.4432C177.096 48.892 177.381 47.5232 177.951 46.3366C178.528 45.1435 179.33 44.2121 180.357 43.5426C181.391 42.8665 182.598 42.5284 183.977 42.5284C185.05 42.5284 186.018 42.7273 186.88 43.125C187.742 43.5227 188.448 44.0795 188.998 44.7955C189.548 45.5114 189.889 46.3466 190.022 47.3011H187.675C187.496 46.6051 187.099 45.9886 186.482 45.4517C185.872 44.9081 185.05 44.6364 184.016 44.6364C183.102 44.6364 182.299 44.875 181.61 45.3523C180.927 45.8229 180.394 46.4891 180.009 47.3509C179.631 48.206 179.442 49.2102 179.442 50.3636C179.442 51.5436 179.628 52.571 179.999 53.446C180.377 54.321 180.907 55.0005 181.59 55.4844C182.28 55.9683 183.088 56.2102 184.016 56.2102C184.626 56.2102 185.18 56.1042 185.677 55.892C186.174 55.6799 186.595 55.375 186.94 54.9773C187.284 54.5795 187.53 54.1023 187.675 53.5455H190.022C189.889 54.447 189.561 55.259 189.038 55.9815C188.521 56.6974 187.835 57.2675 186.979 57.6918C186.131 58.1094 185.143 58.3182 184.016 58.3182ZM199.657 58.3182C198.278 58.3182 197.068 57.9901 196.028 57.3338C194.994 56.6776 194.185 55.7595 193.602 54.5795C193.025 53.3996 192.737 52.0208 192.737 50.4432C192.737 48.8523 193.025 47.4635 193.602 46.277C194.185 45.0904 194.994 44.169 196.028 43.5128C197.068 42.8565 198.278 42.5284 199.657 42.5284C201.036 42.5284 202.242 42.8565 203.276 43.5128C204.317 44.169 205.126 45.0904 205.702 46.277C206.286 47.4635 206.577 48.8523 206.577 50.4432C206.577 52.0208 206.286 53.3996 205.702 54.5795C205.126 55.7595 204.317 56.6776 203.276 57.3338C202.242 57.9901 201.036 58.3182 199.657 58.3182ZM199.657 56.2102C200.704 56.2102 201.566 55.9418 202.242 55.4048C202.918 54.8679 203.419 54.1619 203.744 53.2869C204.068 52.4119 204.231 51.464 204.231 50.4432C204.231 49.4223 204.068 48.4711 203.744 47.5895C203.419 46.7079 202.918 45.9953 202.242 45.4517C201.566 44.9081 200.704 44.6364 199.657 44.6364C198.61 44.6364 197.748 44.9081 197.072 45.4517C196.396 45.9953 195.895 46.7079 195.57 47.5895C195.246 48.4711 195.083 49.4223 195.083 50.4432C195.083 51.464 195.246 52.4119 195.57 53.2869C195.895 54.1619 196.396 54.8679 197.072 55.4048C197.748 55.9418 198.61 56.2102 199.657 56.2102ZM219.784 51.7557V42.7273H222.131V58H219.784V55.4148H219.625C219.267 56.1903 218.711 56.8499 217.955 57.3935C217.199 57.9304 216.245 58.1989 215.091 58.1989C214.137 58.1989 213.288 57.9901 212.546 57.5724C211.803 57.1482 211.22 56.5118 210.796 55.6634C210.372 54.8082 210.159 53.7311 210.159 52.4318V42.7273H212.506V52.2727C212.506 53.3864 212.818 54.2746 213.441 54.9375C214.07 55.6004 214.873 55.9318 215.847 55.9318C216.43 55.9318 217.024 55.7827 217.627 55.4844C218.237 55.1861 218.747 54.7287 219.158 54.1122C219.576 53.4957 219.784 52.7102 219.784 51.7557ZM228.776 48.8125V58H226.429V42.7273H228.696V45.1136H228.895C229.253 44.3381 229.796 43.715 230.526 43.2443C231.255 42.767 232.196 42.5284 233.349 42.5284C234.384 42.5284 235.288 42.7405 236.064 43.1648C236.839 43.5824 237.443 44.2188 237.874 45.0739C238.304 45.9223 238.52 46.9962 238.52 48.2955V58H236.173V48.4545C236.173 47.2547 235.862 46.3201 235.239 45.6506C234.616 44.9744 233.76 44.6364 232.673 44.6364C231.924 44.6364 231.255 44.7988 230.665 45.1236C230.081 45.4484 229.621 45.9223 229.283 46.5455C228.945 47.1686 228.776 47.9242 228.776 48.8125ZM249.45 42.7273V44.7159H241.535V42.7273H249.45ZM243.842 39.0682H246.189V53.625C246.189 54.2879 246.285 54.785 246.477 55.1165C246.676 55.4413 246.928 55.66 247.233 55.7727C247.544 55.8788 247.872 55.9318 248.217 55.9318C248.475 55.9318 248.688 55.9186 248.853 55.892C249.019 55.8589 249.152 55.8324 249.251 55.8125L249.728 57.9205C249.569 57.9801 249.347 58.0398 249.062 58.0994C248.777 58.1657 248.416 58.1989 247.978 58.1989C247.315 58.1989 246.666 58.0563 246.029 57.7713C245.4 57.4863 244.876 57.0521 244.458 56.4688C244.047 55.8854 243.842 55.1496 243.842 54.2614V39.0682Z" fill="black"/>
</svg>
