<svg width="172" height="173" viewBox="0 0 172 173" fill="none" xmlns="http://www.w3.org/2000/svg">
<g id="weather icons">
<g clip-path="url(#clip0_441_833)">
<g id="Property 1=Group 16">
<g id="Ellipse 5" filter="url(#filter0_f_441_833)">
<circle cx="91.1557" cy="46.0658" r="23.7201" fill="#FFC701" fill-opacity="0.5"/>
</g>
<circle id="Ellipse 4" cx="91.1555" cy="46.8433" r="21.9424" fill="url(#paint0_linear_441_833)" stroke="url(#paint1_linear_441_833)" stroke-width="2"/>
<g id="Mask group">
<mask id="mask0_441_833" style="mask-type:alpha" maskUnits="userSpaceOnUse" x="68" y="36" width="47" height="34">
<path id="Ellipse 5_2" d="M114.098 46.8437C114.098 59.5144 103.826 69.7861 91.1555 69.7861C78.4848 69.7861 68.2131 59.5144 68.2131 46.8437C68.2131 34.1729 76.735 37.1223 89.4057 37.1223C102.076 37.1223 114.098 34.1729 114.098 46.8437Z" fill="url(#paint2_linear_441_833)"/>
</mask>
<g mask="url(#mask0_441_833)">
<g id="Union" filter="url(#filter1_f_441_833)">
<path d="M73.2681 42.1777C87.442 42.1777 98.9329 53.6679 98.9331 67.8418C98.9331 69.2992 98.8091 70.7281 98.5757 72.1191H109.237V72.1211C109.302 72.1204 109.366 72.1191 109.431 72.1191C118.666 72.1191 126.153 79.6054 126.153 88.8398C126.153 98.0745 118.666 105.561 109.431 105.561C109.366 105.561 109.302 105.558 109.237 105.558V105.561H50.52L50.521 105.558C50.456 105.558 50.3909 105.561 50.3257 105.561C41.0911 105.561 33.605 98.0744 33.605 88.8398C33.6052 80.3992 39.8597 73.4209 47.9868 72.2832C47.7352 70.8406 47.604 69.3564 47.604 67.8418C47.6042 53.6679 59.0942 42.1778 73.2681 42.1777Z" fill="#E18700"/>
</g>
</g>
</g>
<foreignObject x="-47.1162" y="9.89941" width="192.548" height="162.605"><div xmlns="http://www.w3.org/1999/xhtml" style="backdrop-filter:blur(7px);clip-path:url(#bgblur_1_441_833_clip_path);height:100%;width:100%"></div></foreignObject><g id="Union_2" filter="url(#filter2_d_441_833)" data-figma-bg-blur-radius="14">
<mask id="path-7-inside-1_441_833" fill="white">
<path d="M69.7686 44.8994C83.9425 44.8994 95.4324 56.3896 95.4326 70.5635C95.4326 71.7507 95.3504 72.9191 95.1943 74.0635H99.5156V74.0654C99.5805 74.0647 99.6459 74.0635 99.7109 74.0635C108.945 74.0637 116.432 81.5498 116.432 90.7842C116.432 100.019 108.945 107.505 99.7109 107.505C99.6459 107.505 99.5805 107.503 99.5156 107.502V107.505H40.7988L40.7998 107.502C40.7348 107.503 40.6697 107.505 40.6045 107.505C31.3699 107.505 23.8838 100.019 23.8838 90.7842C23.8839 81.5497 31.37 74.0635 40.6045 74.0635C41.9112 74.0635 43.1829 74.2135 44.4033 74.4971C44.2061 73.2148 44.1045 71.9009 44.1045 70.5635C44.1047 56.3896 55.5946 44.8994 69.7686 44.8994Z"/>
</mask>
<path d="M69.7686 44.8994C83.9425 44.8994 95.4324 56.3896 95.4326 70.5635C95.4326 71.7507 95.3504 72.9191 95.1943 74.0635H99.5156V74.0654C99.5805 74.0647 99.6459 74.0635 99.7109 74.0635C108.945 74.0637 116.432 81.5498 116.432 90.7842C116.432 100.019 108.945 107.505 99.7109 107.505C99.6459 107.505 99.5805 107.503 99.5156 107.502V107.505H40.7988L40.7998 107.502C40.7348 107.503 40.6697 107.505 40.6045 107.505C31.3699 107.505 23.8838 100.019 23.8838 90.7842C23.8839 81.5497 31.37 74.0635 40.6045 74.0635C41.9112 74.0635 43.1829 74.2135 44.4033 74.4971C44.2061 73.2148 44.1045 71.9009 44.1045 70.5635C44.1047 56.3896 55.5946 44.8994 69.7686 44.8994Z" fill="url(#paint3_linear_441_833)" shape-rendering="crispEdges"/>
<path d="M69.7686 44.8994V42.8994V42.8994V44.8994ZM95.4326 70.5635H97.4326V70.5634L95.4326 70.5635ZM95.1943 74.0635L93.2127 73.7933C93.1346 74.3655 93.3078 74.9436 93.6876 75.3787C94.0674 75.8138 94.6168 76.0635 95.1943 76.0635V74.0635ZM99.5156 74.0635H101.516C101.516 72.9589 100.62 72.0635 99.5156 72.0635V74.0635ZM99.5156 74.0654H97.5156C97.5156 74.5998 97.7295 75.112 98.1095 75.4877C98.4895 75.8634 99.0041 76.0714 99.5385 76.0653L99.5156 74.0654ZM99.7109 74.0635L99.711 72.0635H99.7109V74.0635ZM116.432 90.7842H118.432V90.7842L116.432 90.7842ZM99.7109 107.505V109.505H99.711L99.7109 107.505ZM99.5156 107.502L99.5385 105.502C99.0041 105.496 98.4895 105.704 98.1095 106.08C97.7295 106.455 97.5156 106.968 97.5156 107.502H99.5156ZM99.5156 107.505V109.505C100.62 109.505 101.516 108.609 101.516 107.505H99.5156ZM40.7988 107.505L38.9015 106.872C38.6982 107.482 38.8004 108.153 39.1763 108.674C39.5522 109.196 40.1559 109.505 40.7988 109.505V107.505ZM40.7998 107.502L42.6972 108.134C42.9017 107.521 42.7968 106.846 42.4156 106.323C42.0343 105.801 41.4238 105.495 40.7769 105.502L40.7998 107.502ZM40.6045 107.505L40.6045 109.505H40.6045V107.505ZM23.8838 90.7842L21.8838 90.7842V90.7842H23.8838ZM40.6045 74.0635V72.0635H40.6045L40.6045 74.0635ZM44.4033 74.4971L43.9507 76.4452C44.5973 76.5954 45.2763 76.415 45.763 75.9638C46.2498 75.5125 46.481 74.8491 46.3801 74.1931L44.4033 74.4971ZM44.1045 70.5635L42.1045 70.5634V70.5635H44.1045ZM69.7686 44.8994V46.8994C82.8379 46.8994 93.4324 57.4941 93.4326 70.5635L95.4326 70.5635L97.4326 70.5634C97.4324 55.285 85.0471 42.8994 69.7686 42.8994V44.8994ZM95.4326 70.5635H93.4326C93.4326 71.6582 93.3568 72.7364 93.2127 73.7933L95.1943 74.0635L97.176 74.3337C97.344 73.1019 97.4326 71.8431 97.4326 70.5635H95.4326ZM95.1943 74.0635V76.0635H99.5156V74.0635V72.0635H95.1943V74.0635ZM99.5156 74.0635H97.5156V74.0654H99.5156H101.516V74.0635H99.5156ZM99.5156 74.0654L99.5385 76.0653C99.6225 76.0643 99.661 76.0635 99.7109 76.0635V74.0635V72.0635C99.6308 72.0635 99.5385 72.065 99.4928 72.0656L99.5156 74.0654ZM99.7109 74.0635L99.7109 76.0635C107.841 76.0637 114.432 82.6544 114.432 90.7842L116.432 90.7842L118.432 90.7842C118.432 80.4452 110.05 72.0637 99.711 72.0635L99.7109 74.0635ZM116.432 90.7842H114.432C114.432 98.914 107.841 105.505 99.7109 105.505L99.7109 107.505L99.711 109.505C110.05 109.505 118.432 101.123 118.432 90.7842H116.432ZM99.7109 107.505V105.505C99.6454 105.505 99.6781 105.504 99.5385 105.502L99.5156 107.502L99.4928 109.502C99.5144 109.502 99.5336 109.503 99.574 109.503C99.6087 109.504 99.6577 109.505 99.7109 109.505V107.505ZM99.5156 107.502H97.5156V107.505H99.5156H101.516V107.502H99.5156ZM99.5156 107.505V105.505H40.7988V107.505V109.505H99.5156V107.505ZM40.7988 107.505L42.6962 108.137L42.6972 108.134L40.7998 107.502L38.9024 106.869L38.9015 106.872L40.7988 107.505ZM40.7998 107.502L40.7769 105.502C40.6373 105.504 40.6701 105.505 40.6045 105.505V107.505V109.505C40.6578 109.505 40.7067 109.504 40.7415 109.503C40.7818 109.503 40.801 109.502 40.8227 109.502L40.7998 107.502ZM40.6045 107.505L40.6045 105.505C32.4745 105.505 25.8838 98.9142 25.8838 90.7842H23.8838H21.8838C21.8838 101.123 30.2653 109.505 40.6045 109.505L40.6045 107.505ZM23.8838 90.7842L25.8838 90.7842C25.8839 82.6542 32.4745 76.0635 40.6045 76.0635L40.6045 74.0635L40.6045 72.0635C30.2654 72.0635 21.8839 80.4451 21.8838 90.7842L23.8838 90.7842ZM40.6045 74.0635V76.0635C41.7576 76.0635 42.8775 76.1959 43.9507 76.4452L44.4033 74.4971L44.8559 72.549C43.4883 72.2312 42.0648 72.0635 40.6045 72.0635V74.0635ZM44.4033 74.4971L46.3801 74.1931C46.1984 73.0118 46.1045 71.7995 46.1045 70.5635H44.1045H42.1045C42.1045 72.0023 42.2138 73.4179 42.4266 74.8011L44.4033 74.4971ZM44.1045 70.5635L46.1045 70.5635C46.1047 57.4941 56.6992 46.8994 69.7686 46.8994V44.8994V42.8994C54.49 42.8994 42.1047 55.285 42.1045 70.5634L44.1045 70.5635Z" fill="url(#paint4_linear_441_833)" mask="url(#path-7-inside-1_441_833)"/>
</g>
<foreignObject x="4.21265" y="9.89941" width="166.883" height="145.244"><div xmlns="http://www.w3.org/1999/xhtml" style="backdrop-filter:blur(7px);clip-path:url(#bgblur_2_441_833_clip_path);height:100%;width:100%"></div></foreignObject><g id="Union_3" filter="url(#filter3_d_441_833)" data-figma-bg-blur-radius="14">
<mask id="path-9-inside-2_441_833" fill="white">
<path d="M108.373 44.8994C118.616 44.8994 126.921 53.2038 126.921 63.4473C126.921 64.305 126.861 65.1488 126.748 65.9756H129.871V65.9766C129.918 65.976 129.965 65.9756 130.011 65.9756C136.685 65.9756 142.095 71.386 142.095 78.0596C142.095 84.7333 136.685 90.1436 130.011 90.1436C129.965 90.1436 129.918 90.1421 129.871 90.1416V90.1436H87.4373L87.4382 90.1416C87.3911 90.1421 87.3439 90.1436 87.2966 90.1436C80.6229 90.1436 75.2126 84.7333 75.2126 78.0596C75.2128 71.386 80.623 65.9756 87.2966 65.9756C88.2415 65.9756 89.1603 66.0878 90.0427 66.293C89.8999 65.3653 89.826 64.4149 89.8259 63.4473C89.8259 53.204 98.1295 44.8996 108.373 44.8994Z"/>
</mask>
<path d="M108.373 44.8994C118.616 44.8994 126.921 53.2038 126.921 63.4473C126.921 64.305 126.861 65.1488 126.748 65.9756H129.871V65.9766C129.918 65.976 129.965 65.9756 130.011 65.9756C136.685 65.9756 142.095 71.386 142.095 78.0596C142.095 84.7333 136.685 90.1436 130.011 90.1436C129.965 90.1436 129.918 90.1421 129.871 90.1416V90.1436H87.4373L87.4382 90.1416C87.3911 90.1421 87.3439 90.1436 87.2966 90.1436C80.6229 90.1436 75.2126 84.7333 75.2126 78.0596C75.2128 71.386 80.623 65.9756 87.2966 65.9756C88.2415 65.9756 89.1603 66.0878 90.0427 66.293C89.8999 65.3653 89.826 64.4149 89.8259 63.4473C89.8259 53.204 98.1295 44.8996 108.373 44.8994Z" fill="url(#paint5_linear_441_833)" shape-rendering="crispEdges"/>
<path d="M108.373 44.8994V42.8994H108.373L108.373 44.8994ZM126.921 63.4473L128.921 63.4473V63.4473H126.921ZM126.748 65.9756L124.766 65.7054C124.688 66.2777 124.861 66.8557 125.241 67.2908C125.621 67.7259 126.17 67.9756 126.748 67.9756V65.9756ZM129.871 65.9756H131.871C131.871 64.871 130.975 63.9756 129.871 63.9756V65.9756ZM129.871 65.9766H127.871C127.871 66.511 128.085 67.0231 128.465 67.3988C128.845 67.7745 129.359 67.9825 129.894 67.9764L129.871 65.9766ZM130.011 65.9756V63.9756H130.011L130.011 65.9756ZM142.095 78.0596H144.095V78.0595L142.095 78.0596ZM130.011 90.1436L130.011 92.1436H130.011V90.1436ZM129.871 90.1416L129.894 88.1417C129.359 88.1356 128.845 88.3436 128.465 88.7193C128.085 89.095 127.871 89.6072 127.871 90.1416H129.871ZM129.871 90.1436V92.1436C130.975 92.1436 131.871 91.2481 131.871 90.1436H129.871ZM87.4373 90.1436L85.6484 89.2491C85.3384 89.8691 85.3715 90.6054 85.736 91.195C86.1004 91.7846 86.7441 92.1436 87.4373 92.1436V90.1436ZM87.4382 90.1416L89.2271 91.036C89.5389 90.4124 89.5034 89.6714 89.1335 89.0804C88.7635 88.4894 88.1125 88.1337 87.4153 88.1417L87.4382 90.1416ZM87.2966 90.1436V92.1436H87.2966L87.2966 90.1436ZM75.2126 78.0596L73.2126 78.0595V78.0596H75.2126ZM87.2966 65.9756L87.2966 63.9756H87.2966V65.9756ZM90.0427 66.293L89.5899 68.241C90.2365 68.3913 90.9156 68.211 91.4025 67.7596C91.8893 67.3082 92.1205 66.6447 92.0194 65.9886L90.0427 66.293ZM89.8259 63.4473H87.8259V63.4473L89.8259 63.4473ZM108.373 44.8994V46.8994C117.512 46.8994 124.921 54.3084 124.921 63.4473H126.921H128.921C128.921 52.0993 119.721 42.8994 108.373 42.8994V44.8994ZM126.921 63.4473L124.921 63.4472C124.921 64.2114 124.867 64.9649 124.766 65.7054L126.748 65.9756L128.729 66.2458C128.854 65.3327 128.921 64.3986 128.921 63.4473L126.921 63.4473ZM126.748 65.9756V67.9756H129.871V65.9756V63.9756H126.748V65.9756ZM129.871 65.9756H127.871V65.9766H129.871H131.871V65.9756H129.871ZM129.871 65.9766L129.894 67.9764C129.939 67.9759 129.976 67.9756 130.012 67.9756L130.011 65.9756L130.011 63.9756C129.953 63.9756 129.897 63.9761 129.848 63.9767L129.871 65.9766ZM130.011 65.9756V67.9756C135.58 67.9756 140.095 72.4905 140.095 78.0596L142.095 78.0596L144.095 78.0595C144.095 70.2815 137.79 63.9756 130.011 63.9756V65.9756ZM142.095 78.0596H140.095C140.095 83.6288 135.581 88.1436 130.011 88.1436V90.1436V92.1436C137.79 92.1436 144.095 85.8379 144.095 78.0596H142.095ZM130.011 90.1436L130.012 88.1436C129.97 88.1436 130.001 88.143 129.894 88.1417L129.871 90.1416L129.848 92.1415C129.863 92.1416 129.874 92.1419 129.905 92.1425C129.931 92.1429 129.969 92.1436 130.011 92.1436L130.011 90.1436ZM129.871 90.1416H127.871V90.1436H129.871H131.871V90.1416H129.871ZM129.871 90.1436V88.1436H87.4373V90.1436V92.1436H129.871V90.1436ZM87.4373 90.1436L89.2261 91.038L89.2271 91.036L87.4382 90.1416L85.6494 89.2472L85.6484 89.2491L87.4373 90.1436ZM87.4382 90.1416L87.4153 88.1417C87.3097 88.1429 87.3379 88.1436 87.2966 88.1436L87.2966 90.1436L87.2966 92.1436C87.3388 92.1436 87.377 92.1429 87.4031 92.1425C87.4344 92.1419 87.4461 92.1416 87.4612 92.1415L87.4382 90.1416ZM87.2966 90.1436V88.1436C81.7274 88.1436 77.2126 83.6288 77.2126 78.0596H75.2126H73.2126C73.2126 85.8379 79.5183 92.1436 87.2966 92.1436V90.1436ZM75.2126 78.0596L77.2126 78.0596C77.2128 72.4905 81.7276 67.9756 87.2966 67.9756V65.9756V63.9756C79.5184 63.9756 73.2129 70.2815 73.2126 78.0595L75.2126 78.0596ZM87.2966 65.9756L87.2966 67.9756C88.0824 67.9756 88.8493 68.0689 89.5899 68.241L90.0427 66.293L90.4956 64.3449C89.4712 64.1068 88.4006 63.9756 87.2966 63.9756L87.2966 65.9756ZM90.0427 66.293L92.0194 65.9886C91.8921 65.1615 91.8259 64.3129 91.8259 63.4472L89.8259 63.4473L87.8259 63.4473C87.826 64.5169 87.9077 65.569 88.066 66.5974L90.0427 66.293ZM89.8259 63.4473H91.8259C91.8259 54.3084 99.2342 46.8996 108.373 46.8994L108.373 44.8994L108.373 42.8994C97.0249 42.8996 87.8259 52.0995 87.8259 63.4473H89.8259Z" fill="url(#paint6_linear_441_833)" mask="url(#path-9-inside-2_441_833)"/>
</g>
</g>
</g>
<rect x="0.5" y="0.5" width="1655.86" height="1752.49" rx="4.5" stroke="#9747FF" stroke-dasharray="10 5"/>
</g>
<defs>
<filter id="filter0_f_441_833" x="23.4355" y="-21.6543" width="135.44" height="135.44" filterUnits="userSpaceOnUse" color-interpolation-filters="sRGB">
<feFlood flood-opacity="0" result="BackgroundImageFix"/>
<feBlend mode="normal" in="SourceGraphic" in2="BackgroundImageFix" result="shape"/>
<feGaussianBlur stdDeviation="22" result="effect1_foregroundBlur_441_833"/>
</filter>
<filter id="filter1_f_441_833" x="19.605" y="28.1777" width="120.548" height="91.3828" filterUnits="userSpaceOnUse" color-interpolation-filters="sRGB">
<feFlood flood-opacity="0" result="BackgroundImageFix"/>
<feBlend mode="normal" in="SourceGraphic" in2="BackgroundImageFix" result="shape"/>
<feGaussianBlur stdDeviation="7" result="effect1_foregroundBlur_441_833"/>
</filter>
<filter id="filter2_d_441_833" x="-47.1162" y="9.89941" width="192.548" height="162.605" filterUnits="userSpaceOnUse" color-interpolation-filters="sRGB">
<feFlood flood-opacity="0" result="BackgroundImageFix"/>
<feColorMatrix in="SourceAlpha" type="matrix" values="0 0 0 0 0 0 0 0 0 0 0 0 0 0 0 0 0 0 127 0" result="hardAlpha"/>
<feOffset dx="-21" dy="15"/>
<feGaussianBlur stdDeviation="25"/>
<feComposite in2="hardAlpha" operator="out"/>
<feColorMatrix type="matrix" values="0 0 0 0 0.113725 0 0 0 0 0.14902 0 0 0 0 0.27451 0 0 0 0.25 0"/>
<feBlend mode="normal" in2="BackgroundImageFix" result="effect1_dropShadow_441_833"/>
<feBlend mode="normal" in="SourceGraphic" in2="effect1_dropShadow_441_833" result="shape"/>
</filter>
<clipPath id="bgblur_1_441_833_clip_path" transform="translate(47.1162 -9.89941)"><path d="M69.7686 44.8994C83.9425 44.8994 95.4324 56.3896 95.4326 70.5635C95.4326 71.7507 95.3504 72.9191 95.1943 74.0635H99.5156V74.0654C99.5805 74.0647 99.6459 74.0635 99.7109 74.0635C108.945 74.0637 116.432 81.5498 116.432 90.7842C116.432 100.019 108.945 107.505 99.7109 107.505C99.6459 107.505 99.5805 107.503 99.5156 107.502V107.505H40.7988L40.7998 107.502C40.7348 107.503 40.6697 107.505 40.6045 107.505C31.3699 107.505 23.8838 100.019 23.8838 90.7842C23.8839 81.5497 31.37 74.0635 40.6045 74.0635C41.9112 74.0635 43.1829 74.2135 44.4033 74.4971C44.2061 73.2148 44.1045 71.9009 44.1045 70.5635C44.1047 56.3896 55.5946 44.8994 69.7686 44.8994Z"/>
</clipPath><filter id="filter3_d_441_833" x="4.21265" y="9.89941" width="166.883" height="145.244" filterUnits="userSpaceOnUse" color-interpolation-filters="sRGB">
<feFlood flood-opacity="0" result="BackgroundImageFix"/>
<feColorMatrix in="SourceAlpha" type="matrix" values="0 0 0 0 0 0 0 0 0 0 0 0 0 0 0 0 0 0 127 0" result="hardAlpha"/>
<feOffset dx="-21" dy="15"/>
<feGaussianBlur stdDeviation="25"/>
<feComposite in2="hardAlpha" operator="out"/>
<feColorMatrix type="matrix" values="0 0 0 0 0.113438 0 0 0 0 0.148981 0 0 0 0 0.275 0 0 0 0.25 0"/>
<feBlend mode="normal" in2="BackgroundImageFix" result="effect1_dropShadow_441_833"/>
<feBlend mode="normal" in="SourceGraphic" in2="effect1_dropShadow_441_833" result="shape"/>
</filter>
<clipPath id="bgblur_2_441_833_clip_path" transform="translate(-4.21265 -9.89941)"><path d="M108.373 44.8994C118.616 44.8994 126.921 53.2038 126.921 63.4473C126.921 64.305 126.861 65.1488 126.748 65.9756H129.871V65.9766C129.918 65.976 129.965 65.9756 130.011 65.9756C136.685 65.9756 142.095 71.386 142.095 78.0596C142.095 84.7333 136.685 90.1436 130.011 90.1436C129.965 90.1436 129.918 90.1421 129.871 90.1416V90.1436H87.4373L87.4382 90.1416C87.3911 90.1421 87.3439 90.1436 87.2966 90.1436C80.6229 90.1436 75.2126 84.7333 75.2126 78.0596C75.2128 71.386 80.623 65.9756 87.2966 65.9756C88.2415 65.9756 89.1603 66.0878 90.0427 66.293C89.8999 65.3653 89.826 64.4149 89.8259 63.4473C89.8259 53.204 98.1295 44.8996 108.373 44.8994Z"/>
</clipPath><linearGradient id="paint0_linear_441_833" x1="91.1555" y1="23.9009" x2="91.1555" y2="69.7857" gradientUnits="userSpaceOnUse">
<stop stop-color="#FFE600"/>
<stop offset="1" stop-color="#FF7A00"/>
</linearGradient>
<linearGradient id="paint1_linear_441_833" x1="91.1555" y1="23.9009" x2="91.1555" y2="69.7857" gradientUnits="userSpaceOnUse">
<stop stop-color="white"/>
<stop offset="1" stop-color="white" stop-opacity="0"/>
</linearGradient>
<linearGradient id="paint2_linear_441_833" x1="91.1555" y1="23.9013" x2="91.1555" y2="69.7861" gradientUnits="userSpaceOnUse">
<stop stop-color="#FFD600"/>
<stop offset="1" stop-color="#FF7A00"/>
</linearGradient>
<linearGradient id="paint3_linear_441_833" x1="70.1577" y1="24.8734" x2="70.1577" y2="116.254" gradientUnits="userSpaceOnUse">
<stop stop-color="white"/>
<stop offset="1" stop-color="white" stop-opacity="0"/>
</linearGradient>
<linearGradient id="paint4_linear_441_833" x1="70.1577" y1="44.8994" x2="70.1577" y2="107.505" gradientUnits="userSpaceOnUse">
<stop stop-color="white"/>
<stop offset="1" stop-color="white" stop-opacity="0"/>
</linearGradient>
<linearGradient id="paint5_linear_441_833" x1="111.765" y1="46.2604" x2="111.765" y2="95.2561" gradientUnits="userSpaceOnUse">
<stop stop-color="white"/>
<stop offset="1" stop-color="white" stop-opacity="0"/>
</linearGradient>
<linearGradient id="paint6_linear_441_833" x1="108.654" y1="44.8994" x2="108.654" y2="90.1438" gradientUnits="userSpaceOnUse">
<stop stop-color="white"/>
<stop offset="1" stop-color="white" stop-opacity="0"/>
</linearGradient>
<clipPath id="clip0_441_833">
<rect width="1656.86" height="1753.49" rx="5" fill="white"/>
</clipPath>
</defs>
</svg>
