<svg width="168" height="206" viewBox="0 0 168 206" fill="none" xmlns="http://www.w3.org/2000/svg">
<g id="weather icons">
<g clip-path="url(#clip0_441_833)">
<g id="Property 1=Group 11">
<foreignObject x="-16.9883" y="0" width="157.459" height="153.255"><div xmlns="http://www.w3.org/1999/xhtml" style="backdrop-filter:blur(7px);clip-path:url(#bgblur_1_441_833_clip_path);height:100%;width:100%"></div></foreignObject><g id="Subtract" filter="url(#filter0_dd_441_833)" data-figma-bg-blur-radius="14">
<mask id="path-3-inside-1_441_833" fill="white">
<path d="M67.6987 40.6102C70.4029 39.2192 73.2416 38.3652 76.0933 38.0079C76.9593 37.8995 77.4692 38.9188 76.9726 39.6365C72.6763 45.8456 71.8563 54.1603 75.5511 61.3438C80.3948 70.7607 91.3319 74.9959 101.07 71.7126C101.898 71.4336 102.736 72.2069 102.391 73.0093C100.16 78.198 96.1817 82.6725 90.767 85.4577C78.3828 91.8276 63.1793 86.9515 56.8093 74.5674C50.4395 62.1833 55.3148 46.9803 67.6987 40.6102Z"/>
</mask>
<path d="M67.6987 40.6102C70.4029 39.2192 73.2416 38.3652 76.0933 38.0079C76.9593 37.8995 77.4692 38.9188 76.9726 39.6365C72.6763 45.8456 71.8563 54.1603 75.5511 61.3438C80.3948 70.7607 91.3319 74.9959 101.07 71.7126C101.898 71.4336 102.736 72.2069 102.391 73.0093C100.16 78.198 96.1817 82.6725 90.767 85.4577C78.3828 91.8276 63.1793 86.9515 56.8093 74.5674C50.4395 62.1833 55.3148 46.9803 67.6987 40.6102Z" fill="url(#paint0_linear_441_833)"/>
<path d="M67.6987 40.6102L66.7839 38.8316L66.7839 38.8316L67.6987 40.6102ZM75.5511 61.3438L73.7726 62.2586L73.7726 62.2586L75.5511 61.3438ZM90.767 85.4577L91.6818 87.2363L91.6818 87.2363L90.767 85.4577ZM56.8093 74.5674L55.0308 75.4822L55.0308 75.4822L56.8093 74.5674ZM101.07 71.7126L101.709 73.6078L101.07 71.7126ZM102.391 73.0093L104.229 73.7994L102.391 73.0093ZM67.6987 40.6102L68.6136 42.3887C71.1061 41.1066 73.7189 40.321 76.3419 39.9924L76.0933 38.0079L75.8447 36.0234C72.7642 36.4093 69.6996 37.3319 66.7839 38.8316L67.6987 40.6102ZM76.9726 39.6365L75.3279 38.4985C70.6283 45.2904 69.7268 54.3928 73.7726 62.2586L75.5511 61.3438L77.3296 60.4291C73.9858 53.9279 74.7243 46.4007 78.6172 40.7746L76.9726 39.6365ZM75.5511 61.3438L73.7726 62.2586C79.0756 72.5684 91.0477 77.2024 101.709 73.6078L101.07 71.7126L100.431 69.8175C91.6161 72.7895 81.7141 68.9529 77.3296 60.429L75.5511 61.3438ZM102.391 73.0093L100.554 72.2192C98.4994 76.9973 94.8388 81.1142 89.8522 83.6792L90.767 85.4577L91.6818 87.2363C97.5247 84.2308 101.821 79.3987 104.229 73.7994L102.391 73.0093ZM90.767 85.4577L89.8522 83.6792C78.4503 89.5438 64.4526 85.0545 58.5878 73.6526L56.8093 74.5674L55.0308 75.4822C61.906 88.8485 78.3153 94.1114 91.6818 87.2363L90.767 85.4577ZM56.8093 74.5674L58.5878 73.6526C52.7232 62.2508 57.2119 48.2535 68.6136 42.3887L67.6987 40.6102L66.7839 38.8316C53.4177 45.707 48.1557 62.1159 55.0308 75.4822L56.8093 74.5674ZM101.07 71.7126L101.709 73.6078C101.366 73.7234 101.014 73.6176 100.787 73.3996C100.534 73.1575 100.355 72.6812 100.554 72.2192L102.391 73.0093L104.229 73.7994C104.772 72.535 104.347 71.2708 103.554 70.5113C102.786 69.7757 101.601 69.4228 100.431 69.8175L101.07 71.7126ZM76.0933 38.0079L76.3419 39.9924C75.8431 40.0549 75.4353 39.7513 75.2728 39.4416C75.1265 39.1626 75.1223 38.7957 75.3279 38.4985L76.9726 39.6365L78.6172 40.7746C79.3195 39.7597 79.3087 38.5243 78.815 37.5833C78.3052 36.6116 77.2095 35.8525 75.8447 36.0234L76.0933 38.0079Z" fill="url(#paint1_linear_441_833)" mask="url(#path-3-inside-1_441_833)"/>
</g>
<g id="Group 1">
<g id="Mask group">
<mask id="mask0_441_833" style="mask-type:alpha" maskUnits="userSpaceOnUse" x="64" y="70" width="47" height="34">
<path id="Ellipse 5" d="M110.214 80.1401C110.214 92.8108 99.9425 103.082 87.2718 103.082C74.601 103.082 64.3293 92.8108 64.3293 80.1401C64.3293 67.4693 72.8512 70.4187 85.5219 70.4187C98.1927 70.4187 110.214 67.4693 110.214 80.1401Z" fill="url(#paint2_linear_441_833)"/>
</mask>
<g mask="url(#mask0_441_833)">
<g id="Union" filter="url(#filter1_f_441_833)">
<path d="M105.353 105.417C105.418 105.417 105.483 105.416 105.548 105.416C114.782 105.416 122.268 112.902 122.268 122.136C122.268 131.371 114.782 138.857 105.548 138.857C105.483 138.857 105.418 138.855 105.353 138.854V138.857H46.6365L46.6384 138.854C46.5731 138.855 46.5077 138.857 46.4421 138.857C37.2075 138.857 29.7214 131.371 29.7214 122.136C29.7215 112.902 37.2076 105.416 46.4421 105.416C54.402 105.416 61.0626 110.978 62.7498 118.427L68.4128 111.249L86.1052 105.416H105.353V105.417Z" fill="#E18700"/>
</g>
</g>
</g>
<foreignObject x="-51" y="43.1958" width="192.547" height="162.605"><div xmlns="http://www.w3.org/1999/xhtml" style="backdrop-filter:blur(7px);clip-path:url(#bgblur_2_441_833_clip_path);height:100%;width:100%"></div></foreignObject><g id="Union_2" filter="url(#filter2_d_441_833)" data-figma-bg-blur-radius="14">
<mask id="path-7-inside-2_441_833" fill="white">
<path d="M65.8848 78.1958C80.0587 78.1958 91.5486 89.686 91.5488 103.86C91.5488 105.047 91.4666 106.215 91.3105 107.36H95.6318V107.362C95.6965 107.361 95.7613 107.36 95.8262 107.36C105.061 107.36 112.547 114.846 112.547 124.081C112.547 133.315 105.061 140.801 95.8262 140.801C95.7613 140.801 95.6965 140.799 95.6318 140.798V140.801H36.915L36.916 140.798C36.851 140.799 36.7859 140.801 36.7207 140.801C27.4861 140.801 20 133.315 20 124.081C20.0001 114.846 27.4861 107.36 36.7207 107.36C38.0274 107.36 39.2991 107.51 40.5195 107.793C40.3223 106.511 40.2207 105.197 40.2207 103.86C40.2209 89.686 51.7108 78.1958 65.8848 78.1958Z"/>
</mask>
<path d="M65.8848 78.1958C80.0587 78.1958 91.5486 89.686 91.5488 103.86C91.5488 105.047 91.4666 106.215 91.3105 107.36H95.6318V107.362C95.6965 107.361 95.7613 107.36 95.8262 107.36C105.061 107.36 112.547 114.846 112.547 124.081C112.547 133.315 105.061 140.801 95.8262 140.801C95.7613 140.801 95.6965 140.799 95.6318 140.798V140.801H36.915L36.916 140.798C36.851 140.799 36.7859 140.801 36.7207 140.801C27.4861 140.801 20 133.315 20 124.081C20.0001 114.846 27.4861 107.36 36.7207 107.36C38.0274 107.36 39.2991 107.51 40.5195 107.793C40.3223 106.511 40.2207 105.197 40.2207 103.86C40.2209 89.686 51.7108 78.1958 65.8848 78.1958Z" fill="url(#paint3_linear_441_833)" shape-rendering="crispEdges"/>
<path d="M65.8848 78.1958V76.1958V76.1958V78.1958ZM91.5488 103.86H93.5488V103.86L91.5488 103.86ZM91.3105 107.36L89.3289 107.09C89.2509 107.662 89.424 108.24 89.8038 108.675C90.1836 109.11 90.733 109.36 91.3105 109.36V107.36ZM95.6318 107.36H97.6318C97.6318 106.255 96.7364 105.36 95.6318 105.36V107.36ZM95.6318 107.362H93.6318C93.6318 107.896 93.8457 108.408 94.2257 108.784C94.6057 109.16 95.1203 109.368 95.6546 109.362L95.6318 107.362ZM95.8262 107.36V105.36H95.8261L95.8262 107.36ZM112.547 124.081H114.547V124.081L112.547 124.081ZM95.8262 140.801L95.8261 142.801H95.8262V140.801ZM95.6318 140.798L95.6546 138.798C95.1203 138.792 94.6057 139 94.2257 139.376C93.8457 139.752 93.6318 140.264 93.6318 140.798H95.6318ZM95.6318 140.801V142.801C96.7364 142.801 97.6318 141.906 97.6318 140.801H95.6318ZM36.915 140.801L35.0177 140.169C34.8144 140.779 34.9167 141.449 35.2926 141.971C35.6685 142.492 36.2722 142.801 36.915 142.801V140.801ZM36.916 140.798L38.8134 141.431C39.018 140.817 38.913 140.142 38.5318 139.62C38.1505 139.097 37.54 138.791 36.8931 138.798L36.916 140.798ZM36.7207 140.801L36.7207 142.801H36.7207V140.801ZM20 124.081L18 124.081V124.081H20ZM36.7207 107.36V105.36H36.7207L36.7207 107.36ZM40.5195 107.793L40.0669 109.742C40.7135 109.892 41.3925 109.711 41.8792 109.26C42.366 108.809 42.5972 108.145 42.4963 107.489L40.5195 107.793ZM40.2207 103.86L38.2207 103.86V103.86H40.2207ZM65.8848 78.1958V80.1958C78.9541 80.1958 89.5487 90.7905 89.5488 103.86L91.5488 103.86L93.5488 103.86C93.5486 88.5814 81.1633 76.1958 65.8848 76.1958V78.1958ZM91.5488 103.86H89.5488C89.5488 104.955 89.473 106.033 89.3289 107.09L91.3105 107.36L93.2922 107.63C93.4602 106.398 93.5488 105.14 93.5488 103.86H91.5488ZM91.3105 107.36V109.36H95.6318V107.36V105.36H91.3105V107.36ZM95.6318 107.36H93.6318V107.362H95.6318H97.6318V107.36H95.6318ZM95.6318 107.362L95.6546 109.362C95.739 109.361 95.7764 109.36 95.8262 109.36L95.8262 107.36L95.8261 105.36C95.7462 105.36 95.654 105.361 95.609 105.362L95.6318 107.362ZM95.8262 107.36V109.36C103.956 109.36 110.547 115.951 110.547 124.081L112.547 124.081L114.547 124.081C114.547 113.741 106.165 105.36 95.8262 105.36V107.36ZM112.547 124.081H110.547C110.547 132.211 103.956 138.801 95.8262 138.801V140.801V142.801C106.165 142.801 114.547 134.42 114.547 124.081H112.547ZM95.8262 140.801L95.8262 138.801C95.7602 138.801 95.7954 138.8 95.6546 138.798L95.6318 140.798L95.609 142.798C95.6304 142.798 95.6493 142.799 95.6894 142.8C95.724 142.8 95.7729 142.801 95.8261 142.801L95.8262 140.801ZM95.6318 140.798H93.6318V140.801H95.6318H97.6318V140.798H95.6318ZM95.6318 140.801V138.801H36.915V140.801V142.801H95.6318V140.801ZM36.915 140.801L38.8124 141.434L38.8134 141.431L36.916 140.798L35.0186 140.166L35.0177 140.169L36.915 140.801ZM36.916 140.798L36.8931 138.798C36.7535 138.8 36.7863 138.801 36.7207 138.801V140.801V142.801C36.774 142.801 36.823 142.8 36.8577 142.8C36.898 142.799 36.9172 142.798 36.9389 142.798L36.916 140.798ZM36.7207 140.801L36.7207 138.801C28.5907 138.801 22 132.211 22 124.081H20H18C18 134.42 26.3815 142.801 36.7207 142.801L36.7207 140.801ZM20 124.081L22 124.081C22 115.951 28.5907 109.36 36.7207 109.36L36.7207 107.36L36.7207 105.36C26.3816 105.36 18.0001 113.741 18 124.081L20 124.081ZM36.7207 107.36V109.36C37.8738 109.36 38.9937 109.492 40.0669 109.742L40.5195 107.793L40.9721 105.845C39.6045 105.528 38.181 105.36 36.7207 105.36V107.36ZM40.5195 107.793L42.4963 107.489C42.3146 106.308 42.2207 105.096 42.2207 103.86H40.2207H38.2207C38.2207 105.299 38.33 106.714 38.5428 108.097L40.5195 107.793ZM40.2207 103.86L42.2207 103.86C42.2209 90.7905 52.8154 80.1958 65.8848 80.1958V78.1958V76.1958C50.6062 76.1958 38.2209 88.5814 38.2207 103.86L40.2207 103.86Z" fill="url(#paint4_linear_441_833)" mask="url(#path-7-inside-2_441_833)"/>
</g>
<foreignObject x="0.328613" y="43.1958" width="166.883" height="145.244"><div xmlns="http://www.w3.org/1999/xhtml" style="backdrop-filter:blur(7px);clip-path:url(#bgblur_3_441_833_clip_path);height:100%;width:100%"></div></foreignObject><g id="Union_3" filter="url(#filter3_d_441_833)" data-figma-bg-blur-radius="14">
<mask id="path-9-inside-3_441_833" fill="white">
<path d="M104.489 78.1958C114.732 78.1958 123.037 86.5002 123.037 96.7437C123.037 97.6013 122.976 98.4452 122.864 99.272H125.987V99.2729C126.034 99.2724 126.081 99.272 126.127 99.272C132.801 99.272 138.211 104.682 138.211 111.356C138.211 118.03 132.801 123.44 126.127 123.44C126.08 123.44 126.034 123.439 125.987 123.438V123.44H83.5532L83.5542 123.438C83.5071 123.439 83.4599 123.44 83.4126 123.44C76.7388 123.44 71.3286 118.03 71.3286 111.356C71.3288 104.682 76.739 99.272 83.4126 99.272C84.3575 99.272 85.2762 99.3842 86.1587 99.5894C86.0158 98.6617 85.9419 97.7113 85.9419 96.7437C85.9419 86.5003 94.2455 78.196 104.489 78.1958Z"/>
</mask>
<path d="M104.489 78.1958C114.732 78.1958 123.037 86.5002 123.037 96.7437C123.037 97.6013 122.976 98.4452 122.864 99.272H125.987V99.2729C126.034 99.2724 126.081 99.272 126.127 99.272C132.801 99.272 138.211 104.682 138.211 111.356C138.211 118.03 132.801 123.44 126.127 123.44C126.08 123.44 126.034 123.439 125.987 123.438V123.44H83.5532L83.5542 123.438C83.5071 123.439 83.4599 123.44 83.4126 123.44C76.7388 123.44 71.3286 118.03 71.3286 111.356C71.3288 104.682 76.739 99.272 83.4126 99.272C84.3575 99.272 85.2762 99.3842 86.1587 99.5894C86.0158 98.6617 85.9419 97.7113 85.9419 96.7437C85.9419 86.5003 94.2455 78.196 104.489 78.1958Z" fill="url(#paint5_linear_441_833)" shape-rendering="crispEdges"/>
<path d="M104.489 78.1958V76.1958H104.489L104.489 78.1958ZM123.037 96.7437L125.037 96.7437V96.7437H123.037ZM122.864 99.272L120.882 99.0018C120.804 99.574 120.977 100.152 121.357 100.587C121.737 101.022 122.286 101.272 122.864 101.272V99.272ZM125.987 99.272H127.987C127.987 98.1674 127.091 97.272 125.987 97.272V99.272ZM125.987 99.2729H123.987C123.987 99.8073 124.201 100.32 124.581 100.695C124.961 101.071 125.475 101.279 126.01 101.273L125.987 99.2729ZM126.127 99.272V97.272H126.127L126.127 99.272ZM138.211 111.356H140.211V111.356L138.211 111.356ZM126.127 123.44L126.127 125.44H126.127V123.44ZM125.987 123.438L126.01 121.438C125.475 121.432 124.961 121.64 124.581 122.016C124.201 122.391 123.987 122.904 123.987 123.438H125.987ZM125.987 123.44V125.44C127.091 125.44 127.987 124.545 127.987 123.44H125.987ZM83.5532 123.44L81.7644 122.546C81.4544 123.165 81.4875 123.902 81.8519 124.491C82.2163 125.081 82.8601 125.44 83.5532 125.44V123.44ZM83.5542 123.438L85.3431 124.332C85.6549 123.709 85.6194 122.968 85.2494 122.377C84.8795 121.786 84.2284 121.43 83.5312 121.438L83.5542 123.438ZM83.4126 123.44V125.44H83.4126L83.4126 123.44ZM71.3286 111.356L69.3286 111.356V111.356H71.3286ZM83.4126 99.272L83.4126 97.272H83.4126V99.272ZM86.1587 99.5894L85.7058 101.537C86.3525 101.688 87.0316 101.507 87.5184 101.056C88.0053 100.605 88.2364 99.9411 88.1354 99.2849L86.1587 99.5894ZM85.9419 96.7437H83.9419V96.7437L85.9419 96.7437ZM104.489 78.1958V80.1958C113.628 80.1958 121.037 87.6048 121.037 96.7437H123.037H125.037C125.037 85.3956 115.837 76.1958 104.489 76.1958V78.1958ZM123.037 96.7437L121.037 96.7436C121.037 97.5077 120.983 98.2613 120.882 99.0018L122.864 99.272L124.845 99.5422C124.97 98.6291 125.037 97.695 125.037 96.7437L123.037 96.7437ZM122.864 99.272V101.272H125.987V99.272V97.272H122.864V99.272ZM125.987 99.272H123.987V99.2729H125.987H127.987V99.272H125.987ZM125.987 99.2729L126.01 101.273C126.055 101.272 126.092 101.272 126.127 101.272L126.127 99.272L126.127 97.272C126.069 97.272 126.013 97.2725 125.964 97.2731L125.987 99.2729ZM126.127 99.272V101.272C131.696 101.272 136.211 105.787 136.211 111.356L138.211 111.356L140.211 111.356C140.211 103.578 133.906 97.272 126.127 97.272V99.272ZM138.211 111.356H136.211C136.211 116.925 131.697 121.44 126.127 121.44V123.44V125.44C133.906 125.44 140.211 119.134 140.211 111.356H138.211ZM126.127 123.44L126.127 121.44C126.086 121.44 126.117 121.439 126.01 121.438L125.987 123.438L125.964 125.438C125.979 125.438 125.99 125.438 126.021 125.439C126.047 125.439 126.085 125.44 126.127 125.44L126.127 123.44ZM125.987 123.438H123.987V123.44H125.987H127.987V123.438H125.987ZM125.987 123.44V121.44H83.5532V123.44V125.44H125.987V123.44ZM83.5532 123.44L85.3421 124.334L85.3431 124.332L83.5542 123.438L81.7653 122.544L81.7644 122.546L83.5532 123.44ZM83.5542 123.438L83.5312 121.438C83.4257 121.439 83.4538 121.44 83.4126 121.44L83.4126 123.44L83.4126 125.44C83.4548 125.44 83.493 125.439 83.5191 125.439C83.5504 125.438 83.562 125.438 83.5772 125.438L83.5542 123.438ZM83.4126 123.44V121.44C77.8434 121.44 73.3286 116.925 73.3286 111.356H71.3286H69.3286C69.3286 119.134 75.6343 125.44 83.4126 125.44V123.44ZM71.3286 111.356L73.3286 111.356C73.3288 105.787 77.8436 101.272 83.4126 101.272V99.272V97.272C75.6343 97.272 69.3288 103.578 69.3286 111.356L71.3286 111.356ZM83.4126 99.272L83.4126 101.272C84.1984 101.272 84.9653 101.365 85.7058 101.537L86.1587 99.5894L86.6115 97.6413C85.5872 97.4032 84.5165 97.272 83.4126 97.272L83.4126 99.272ZM86.1587 99.5894L88.1354 99.2849C88.008 98.4579 87.9419 97.6093 87.9419 96.7436L85.9419 96.7437L83.9419 96.7437C83.9419 97.8133 84.0236 98.8654 84.182 99.8938L86.1587 99.5894ZM85.9419 96.7437H87.9419C87.9419 87.6048 95.3502 80.196 104.489 80.1958L104.489 78.1958L104.489 76.1958C93.1408 76.196 83.9419 85.3959 83.9419 96.7437H85.9419Z" fill="url(#paint6_linear_441_833)" mask="url(#path-9-inside-3_441_833)"/>
</g>
</g>
</g>
</g>
<rect x="0.5" y="-1047.6" width="1655.86" height="1752.49" rx="4.5" stroke="#9747FF" stroke-dasharray="10 5"/>
</g>
<defs>
<filter id="filter0_dd_441_833" x="-16.9883" y="0" width="157.459" height="153.255" filterUnits="userSpaceOnUse" color-interpolation-filters="sRGB">
<feFlood flood-opacity="0" result="BackgroundImageFix"/>
<feColorMatrix in="SourceAlpha" type="matrix" values="0 0 0 0 0 0 0 0 0 0 0 0 0 0 0 0 0 0 127 0" result="hardAlpha"/>
<feOffset dx="-21" dy="15"/>
<feGaussianBlur stdDeviation="25"/>
<feComposite in2="hardAlpha" operator="out"/>
<feColorMatrix type="matrix" values="0 0 0 0 0.113438 0 0 0 0 0.148981 0 0 0 0 0.275 0 0 0 0.25 0"/>
<feBlend mode="normal" in2="BackgroundImageFix" result="effect1_dropShadow_441_833"/>
<feColorMatrix in="SourceAlpha" type="matrix" values="0 0 0 0 0 0 0 0 0 0 0 0 0 0 0 0 0 0 127 0" result="hardAlpha"/>
<feOffset/>
<feGaussianBlur stdDeviation="19"/>
<feComposite in2="hardAlpha" operator="out"/>
<feColorMatrix type="matrix" values="0 0 0 0 0.619608 0 0 0 0 0.423529 0 0 0 0 1 0 0 0 0.4 0"/>
<feBlend mode="normal" in2="effect1_dropShadow_441_833" result="effect2_dropShadow_441_833"/>
<feBlend mode="normal" in="SourceGraphic" in2="effect2_dropShadow_441_833" result="shape"/>
</filter>
<clipPath id="bgblur_1_441_833_clip_path" transform="translate(16.9883 0)"><path d="M67.6987 40.6102C70.4029 39.2192 73.2416 38.3652 76.0933 38.0079C76.9593 37.8995 77.4692 38.9188 76.9726 39.6365C72.6763 45.8456 71.8563 54.1603 75.5511 61.3438C80.3948 70.7607 91.3319 74.9959 101.07 71.7126C101.898 71.4336 102.736 72.2069 102.391 73.0093C100.16 78.198 96.1817 82.6725 90.767 85.4577C78.3828 91.8276 63.1793 86.9515 56.8093 74.5674C50.4395 62.1833 55.3148 46.9803 67.6987 40.6102Z"/>
</clipPath><filter id="filter1_f_441_833" x="15.7214" y="91.4155" width="120.547" height="61.4414" filterUnits="userSpaceOnUse" color-interpolation-filters="sRGB">
<feFlood flood-opacity="0" result="BackgroundImageFix"/>
<feBlend mode="normal" in="SourceGraphic" in2="BackgroundImageFix" result="shape"/>
<feGaussianBlur stdDeviation="7" result="effect1_foregroundBlur_441_833"/>
</filter>
<filter id="filter2_d_441_833" x="-51" y="43.1958" width="192.547" height="162.605" filterUnits="userSpaceOnUse" color-interpolation-filters="sRGB">
<feFlood flood-opacity="0" result="BackgroundImageFix"/>
<feColorMatrix in="SourceAlpha" type="matrix" values="0 0 0 0 0 0 0 0 0 0 0 0 0 0 0 0 0 0 127 0" result="hardAlpha"/>
<feOffset dx="-21" dy="15"/>
<feGaussianBlur stdDeviation="25"/>
<feComposite in2="hardAlpha" operator="out"/>
<feColorMatrix type="matrix" values="0 0 0 0 0.113725 0 0 0 0 0.14902 0 0 0 0 0.27451 0 0 0 0.25 0"/>
<feBlend mode="normal" in2="BackgroundImageFix" result="effect1_dropShadow_441_833"/>
<feBlend mode="normal" in="SourceGraphic" in2="effect1_dropShadow_441_833" result="shape"/>
</filter>
<clipPath id="bgblur_2_441_833_clip_path" transform="translate(51 -43.1958)"><path d="M65.8848 78.1958C80.0587 78.1958 91.5486 89.686 91.5488 103.86C91.5488 105.047 91.4666 106.215 91.3105 107.36H95.6318V107.362C95.6965 107.361 95.7613 107.36 95.8262 107.36C105.061 107.36 112.547 114.846 112.547 124.081C112.547 133.315 105.061 140.801 95.8262 140.801C95.7613 140.801 95.6965 140.799 95.6318 140.798V140.801H36.915L36.916 140.798C36.851 140.799 36.7859 140.801 36.7207 140.801C27.4861 140.801 20 133.315 20 124.081C20.0001 114.846 27.4861 107.36 36.7207 107.36C38.0274 107.36 39.2991 107.51 40.5195 107.793C40.3223 106.511 40.2207 105.197 40.2207 103.86C40.2209 89.686 51.7108 78.1958 65.8848 78.1958Z"/>
</clipPath><filter id="filter3_d_441_833" x="0.328613" y="43.1958" width="166.883" height="145.244" filterUnits="userSpaceOnUse" color-interpolation-filters="sRGB">
<feFlood flood-opacity="0" result="BackgroundImageFix"/>
<feColorMatrix in="SourceAlpha" type="matrix" values="0 0 0 0 0 0 0 0 0 0 0 0 0 0 0 0 0 0 127 0" result="hardAlpha"/>
<feOffset dx="-21" dy="15"/>
<feGaussianBlur stdDeviation="25"/>
<feComposite in2="hardAlpha" operator="out"/>
<feColorMatrix type="matrix" values="0 0 0 0 0.113438 0 0 0 0 0.148981 0 0 0 0 0.275 0 0 0 0.25 0"/>
<feBlend mode="normal" in2="BackgroundImageFix" result="effect1_dropShadow_441_833"/>
<feBlend mode="normal" in="SourceGraphic" in2="effect1_dropShadow_441_833" result="shape"/>
</filter>
<clipPath id="bgblur_3_441_833_clip_path" transform="translate(-0.328613 -43.1958)"><path d="M104.489 78.1958C114.732 78.1958 123.037 86.5002 123.037 96.7437C123.037 97.6013 122.976 98.4452 122.864 99.272H125.987V99.2729C126.034 99.2724 126.081 99.272 126.127 99.272C132.801 99.272 138.211 104.682 138.211 111.356C138.211 118.03 132.801 123.44 126.127 123.44C126.08 123.44 126.034 123.439 125.987 123.438V123.44H83.5532L83.5542 123.438C83.5071 123.439 83.4599 123.44 83.4126 123.44C76.7388 123.44 71.3286 118.03 71.3286 111.356C71.3288 104.682 76.739 99.272 83.4126 99.272C84.3575 99.272 85.2762 99.3842 86.1587 99.5894C86.0158 98.6617 85.9419 97.7113 85.9419 96.7437C85.9419 86.5003 94.2455 78.196 104.489 78.1958Z"/>
</clipPath><linearGradient id="paint0_linear_441_833" x1="63.1302" y1="43.4596" x2="86.1984" y2="88.3072" gradientUnits="userSpaceOnUse">
<stop offset="0.0001" stop-color="#D4C0FF"/>
<stop offset="1" stop-color="#7E2FFF"/>
</linearGradient>
<linearGradient id="paint1_linear_441_833" x1="65.7407" y1="18.7486" x2="80.204" y2="77.6072" gradientUnits="userSpaceOnUse">
<stop stop-color="white"/>
<stop offset="1" stop-color="white" stop-opacity="0"/>
</linearGradient>
<linearGradient id="paint2_linear_441_833" x1="87.2718" y1="57.1976" x2="87.2718" y2="103.082" gradientUnits="userSpaceOnUse">
<stop stop-color="#FFD600"/>
<stop offset="1" stop-color="#FF7A00"/>
</linearGradient>
<linearGradient id="paint3_linear_441_833" x1="66.2734" y1="58.1698" x2="66.2734" y2="149.55" gradientUnits="userSpaceOnUse">
<stop stop-color="white"/>
<stop offset="1" stop-color="white" stop-opacity="0"/>
</linearGradient>
<linearGradient id="paint4_linear_441_833" x1="66.2734" y1="78.1958" x2="66.2734" y2="140.801" gradientUnits="userSpaceOnUse">
<stop stop-color="white"/>
<stop offset="1" stop-color="white" stop-opacity="0"/>
</linearGradient>
<linearGradient id="paint5_linear_441_833" x1="107.881" y1="79.5568" x2="107.881" y2="128.552" gradientUnits="userSpaceOnUse">
<stop stop-color="white"/>
<stop offset="1" stop-color="white" stop-opacity="0"/>
</linearGradient>
<linearGradient id="paint6_linear_441_833" x1="104.77" y1="78.1958" x2="104.77" y2="123.44" gradientUnits="userSpaceOnUse">
<stop stop-color="white"/>
<stop offset="1" stop-color="white" stop-opacity="0"/>
</linearGradient>
<clipPath id="clip0_441_833">
<rect y="-1048.1" width="1656.86" height="1753.49" rx="5" fill="white"/>
</clipPath>
</defs>
</svg>
