<svg width="32" height="32" viewBox="0 0 32 32" fill="none" xmlns="http://www.w3.org/2000/svg">
<path d="M7.70003 11.9989C6.90791 12.5244 6.38567 13.4242 6.38567 14.446V23.9303C6.38567 26.1394 8.17653 27.9303 10.3857 27.9303H15.6196C16.4742 27.9303 17.2345 27.5268 17.7205 26.8999M21.6201 22.4565H15.9476C13.7385 22.4565 11.9476 20.6656 11.9476 18.4565V8.07178C11.9476 5.86264 13.7385 4.07178 15.9476 4.07178H21.6201C23.8293 4.07178 25.6201 5.86264 25.6201 8.07178V18.4565C25.6201 20.6656 23.8293 22.4565 21.6201 22.4565Z" stroke="#070707" stroke-width="2" stroke-miterlimit="10" stroke-linecap="round" stroke-linejoin="round"/>
<path d="M18.6663 10.6665L18.6667 13.3333M18.6667 13.3333L18.667 15.9998M18.6667 13.3333L16 13.3332M18.6667 13.3333L21.3333 13.3335" stroke="#070707" stroke-width="2" stroke-miterlimit="10" stroke-linecap="round" stroke-linejoin="round"/>
</svg>
