<svg width="32" height="31" viewBox="0 0 32 31" fill="none" xmlns="http://www.w3.org/2000/svg">
<path d="M18.513 9C18.7119 9 18.9027 9.07902 19.0433 9.21967C19.184 9.36032 19.263 9.55109 19.263 9.75V11.75H21.25C21.4489 11.75 21.6397 11.829 21.7803 11.9697C21.921 12.1103 22 12.3011 22 12.5C22 12.6989 21.921 12.8897 21.7803 13.0303C21.6397 13.171 21.4489 13.25 21.25 13.25H19.263V15.25C19.263 15.4489 19.184 15.6397 19.0433 15.7803C18.9027 15.921 18.7119 16 18.513 16C18.3141 16 18.1233 15.921 17.9827 15.7803C17.842 15.6397 17.763 15.4489 17.763 15.25V13.25H15.75C15.5511 13.25 15.3603 13.171 15.2197 13.0303C15.079 12.8897 15 12.6989 15 12.5C15 12.3011 15.079 12.1103 15.2197 11.9697C15.3603 11.829 15.5511 11.75 15.75 11.75H17.763V9.75C17.763 9.55109 17.842 9.36032 17.9827 9.21967C18.1233 9.07902 18.3141 9 18.513 9Z" fill="#17181C"/>
<path d="M11.0239 6.75C11.0239 5.784 11.8079 5 12.7739 5H24.2499C25.2159 5 25.9999 5.784 25.9999 6.75V18.248C25.9999 18.7121 25.8156 19.1572 25.4874 19.4854C25.1592 19.8136 24.7141 19.998 24.2499 19.998H12.7739C12.3098 19.998 11.8647 19.8136 11.5365 19.4854C11.2083 19.1572 11.0239 18.7121 11.0239 18.248V6.75ZM12.7739 6.5C12.7076 6.5 12.644 6.52634 12.5971 6.57322C12.5503 6.62011 12.5239 6.6837 12.5239 6.75V18.248C12.5239 18.387 12.6359 18.498 12.7739 18.498H24.2499C24.3162 18.498 24.3798 18.4717 24.4267 18.4248C24.4736 18.3779 24.4999 18.3143 24.4999 18.248V6.75C24.4999 6.6837 24.4736 6.62011 24.4267 6.57322C24.3798 6.52634 24.3162 6.5 24.2499 6.5H12.7739Z" fill="#17181C"/>
<path d="M5.99512 12.749C5.99499 12.5191 6.04015 12.2915 6.12804 12.079C6.21593 11.8666 6.34481 11.6736 6.50733 11.511C6.66984 11.3484 6.86281 11.2194 7.07519 11.1314C7.28758 11.0433 7.51522 10.998 7.74512 10.998H9.25012C9.44903 10.998 9.6398 11.0771 9.78045 11.2177C9.9211 11.3584 10.0001 11.5491 10.0001 11.748C10.0001 11.947 9.9211 12.1377 9.78045 12.2784C9.6398 12.419 9.44903 12.498 9.25012 12.498H7.74512C7.67881 12.498 7.61522 12.5244 7.56834 12.5713C7.52146 12.6182 7.49512 12.6817 7.49512 12.748L7.50012 22.25C7.50012 22.388 7.61112 22.5 7.75012 22.5H17.2501C17.3164 22.5 17.38 22.4737 17.4269 22.4268C17.4738 22.3799 17.5001 22.3164 17.5001 22.25V21.74C17.5001 21.5411 17.5791 21.3504 17.7198 21.2097C17.8604 21.0691 18.0512 20.99 18.2501 20.99C18.449 20.99 18.6398 21.0691 18.7804 21.2097C18.9211 21.3504 19.0001 21.5411 19.0001 21.74V22.25C19.0001 22.7142 18.8157 23.1593 18.4876 23.4875C18.1594 23.8157 17.7142 24 17.2501 24H7.75012C7.28599 24 6.84087 23.8157 6.51268 23.4875C6.18449 23.1593 6.00012 22.7142 6.00012 22.25L5.99512 12.749Z" fill="#17181C"/>
</svg>
