<svg width="32" height="31" viewBox="0 0 32 31" fill="none" xmlns="http://www.w3.org/2000/svg">
<path d="M12.606 7.4795C13.786 6.9375 14.376 6.6665 15 6.6665C15.624 6.6665 16.214 6.9375 17.394 7.4795L22.287 9.7275C24.096 10.5565 25 10.9735 25 11.6665C25 12.3595 24.096 12.7755 22.287 13.6065L17.394 15.8535C16.214 16.3955 15.624 16.6665 15 16.6665C14.376 16.6665 13.786 16.3955 12.606 15.8535L7.713 13.6055C5.904 12.7765 5 12.3595 5 11.6665C5 10.9735 5.904 10.5575 7.713 9.7265L12.606 7.4795Z" stroke="#17181C" stroke-width="1.5" stroke-linecap="round" stroke-linejoin="round"/>
<path d="M24.0615 15.7412C24.4362 15.9339 24.7667 16.125 25.0254 16.3311C25.4122 16.6393 25.75 17.0675 25.75 17.667C25.7498 18.4139 25.2328 18.8873 24.7314 19.2139C24.2217 19.5459 23.4806 19.8834 22.5996 20.2881L17.707 22.5352C16.5901 23.0482 15.8265 23.417 15 23.417C14.1735 23.417 13.4101 23.0497 12.292 22.5352V22.5342L7.40039 20.2881V20.2891C6.51916 19.8847 5.7785 19.5461 5.26855 19.2139C4.76704 18.887 4.2502 18.4136 4.25 17.667C4.25 17.0675 4.58778 16.6393 4.97461 16.3311C5.2331 16.1251 5.56315 15.9337 5.9375 15.7412C6.37571 15.9911 6.96715 16.2637 7.71289 16.6055L12.6064 18.8535C13.7862 19.3954 14.3761 19.667 15 19.667C15.6239 19.667 16.2138 19.3954 17.3936 18.8535L22.2871 16.6064C23.0324 16.2641 23.6234 15.9911 24.0615 15.7412Z" fill="#7A7F89"/>
<path d="M24.0615 15.7412L24.4045 15.0742C24.179 14.9583 23.9102 14.9641 23.69 15.0897L24.0615 15.7412ZM25.0254 16.3311L25.4928 15.7445L25.4928 15.7445L25.0254 16.3311ZM25.75 17.667L26.5 17.6672V17.667H25.75ZM24.7314 19.2139L25.1408 19.8423L25.1408 19.8423L24.7314 19.2139ZM22.5996 20.2881L22.9126 20.9696L22.9127 20.9696L22.5996 20.2881ZM17.707 22.5352L17.394 21.8536L17.394 21.8536L17.707 22.5352ZM12.292 22.5352H11.542C11.542 22.828 11.7124 23.0941 11.9785 23.2165L12.292 22.5352ZM12.292 22.5342H13.042C13.042 22.2411 12.8713 21.9749 12.605 21.8526L12.292 22.5342ZM7.40039 20.2881L7.71335 19.6065C7.48115 19.4999 7.21065 19.5188 6.99556 19.6567C6.78047 19.7946 6.65039 20.0326 6.65039 20.2881H7.40039ZM7.40039 20.2891L7.08763 20.9707C7.31982 21.0773 7.59028 21.0583 7.80532 20.9204C8.02035 20.7824 8.15039 20.5445 8.15039 20.2891H7.40039ZM5.26855 19.2139L4.85907 19.8422L4.85912 19.8422L5.26855 19.2139ZM4.25 17.667H3.5V17.6672L4.25 17.667ZM4.97461 16.3311L4.50724 15.7445L4.50718 15.7445L4.97461 16.3311ZM5.9375 15.7412L6.30906 15.0897C6.08879 14.9641 5.81997 14.9583 5.59448 15.0743L5.9375 15.7412ZM7.71289 16.6055L8.02598 15.9239L8.02534 15.9237L7.71289 16.6055ZM12.6064 18.8535L12.2934 19.535L12.2934 19.5351L12.6064 18.8535ZM17.3936 18.8535L17.0806 18.1719L17.0805 18.172L17.3936 18.8535ZM22.2871 16.6064L22.6001 17.288L22.6002 17.288L22.2871 16.6064ZM24.0615 15.7412L23.7185 16.4082C24.0813 16.5947 24.3586 16.7588 24.558 16.9176L25.0254 16.3311L25.4928 15.7445C25.1748 15.4912 24.7911 15.273 24.4045 15.0742L24.0615 15.7412ZM25.0254 16.3311L24.558 16.9176C24.8547 17.1541 25 17.389 25 17.667H25.75H26.5C26.5 16.7459 25.9697 16.1246 25.4928 15.7445L25.0254 16.3311ZM25.75 17.667L25 17.6668C24.9999 18.0113 24.7769 18.2892 24.3221 18.5854L24.7314 19.2139L25.1408 19.8423C25.6888 19.4853 26.4997 18.8164 26.5 17.6672L25.75 17.667ZM24.7314 19.2139L24.3221 18.5854C23.87 18.8799 23.191 19.1911 22.2865 19.6066L22.5996 20.2881L22.9127 20.9696C23.7702 20.5757 24.5733 20.2119 25.1408 19.8423L24.7314 19.2139ZM22.5996 20.2881L22.2866 19.6065L17.394 21.8536L17.707 22.5352L18.0201 23.2167L22.9126 20.9696L22.5996 20.2881ZM17.707 22.5352L17.394 21.8536C16.2179 22.3938 15.625 22.667 15 22.667V23.417V24.167C16.028 24.167 16.9622 23.7026 18.0201 23.2167L17.707 22.5352ZM15 23.417V22.667C14.3749 22.667 13.7814 22.3949 12.6055 21.8538L12.292 22.5352L11.9785 23.2165C13.0389 23.7045 13.9721 24.167 15 24.167V23.417ZM12.292 22.5352H13.042V22.5342H12.292H11.542V22.5352H12.292ZM12.292 22.5342L12.605 21.8526L7.71335 19.6065L7.40039 20.2881L7.08743 20.9697L11.979 23.2158L12.292 22.5342ZM7.40039 20.2881H6.65039V20.2891H7.40039H8.15039V20.2881H7.40039ZM7.40039 20.2891L7.71315 19.6074C6.80978 19.1929 6.13033 18.8802 5.67799 18.5855L5.26855 19.2139L4.85912 19.8422C5.42666 20.212 6.22853 20.5766 7.08763 20.9707L7.40039 20.2891ZM5.26855 19.2139L5.67804 18.5855C5.22298 18.289 5.00009 18.0111 5 17.6668L4.25 17.667L3.5 17.6672C3.50031 18.8162 4.31109 19.4851 4.85907 19.8422L5.26855 19.2139ZM4.25 17.667H5C5 17.389 5.14526 17.1541 5.44204 16.9176L4.97461 16.3311L4.50718 15.7445C4.03029 16.1246 3.5 16.7459 3.5 17.667H4.25ZM4.97461 16.3311L5.44198 16.9176C5.64155 16.7586 5.91885 16.5942 6.28052 16.4082L5.9375 15.7412L5.59448 15.0743C5.20745 15.2733 4.82465 15.4916 4.50724 15.7445L4.97461 16.3311ZM5.9375 15.7412L5.56594 16.3927C6.03945 16.6628 6.66547 16.9505 7.40044 17.2873L7.71289 16.6055L8.02534 15.9237C7.26883 15.577 6.71196 15.3195 6.30906 15.0897L5.9375 15.7412ZM7.71289 16.6055L7.39981 17.287L12.2934 19.535L12.6064 18.8535L12.9195 18.172L8.02598 15.9239L7.71289 16.6055ZM12.6064 18.8535L12.2934 19.5351C13.4096 20.0478 14.1734 20.417 15 20.417V19.667V18.917C14.5787 18.917 14.1628 18.743 12.9195 18.172L12.6064 18.8535ZM15 19.667V20.417C15.8266 20.417 16.5904 20.0478 17.7066 19.5351L17.3936 18.8535L17.0805 18.172C15.8372 18.743 15.4213 18.917 15 18.917V19.667ZM17.3936 18.8535L17.7065 19.5351L22.6001 17.288L22.2871 16.6064L21.9741 15.9249L17.0806 18.1719L17.3936 18.8535ZM22.2871 16.6064L22.6002 17.288C23.3348 16.9505 23.96 16.6625 24.4331 16.3927L24.0615 15.7412L23.69 15.0897C23.2868 15.3197 22.73 15.5777 21.974 15.9249L22.2871 16.6064Z" fill="#17181C"/>
</svg>
