<svg width="45" height="45" viewBox="0 0 45 45" fill="none" xmlns="http://www.w3.org/2000/svg">
<path d="M13.9999 21L13.2929 21.707L12.5859 21L13.2929 20.293L13.9999 21ZM30.9999 29C30.9999 29.2652 30.8946 29.5195 30.707 29.7071C30.5195 29.8946 30.2652 30 29.9999 30C29.7347 30 29.4804 29.8946 29.2928 29.7071C29.1053 29.5195 28.9999 29.2652 28.9999 29H30.9999ZM18.2929 26.707L13.2929 21.707L14.7069 20.293L19.7069 25.293L18.2929 26.707ZM13.2929 20.293L18.2929 15.293L19.7069 16.707L14.7069 21.707L13.2929 20.293ZM13.9999 20H23.9999V22H13.9999V20ZM30.9999 27V29H28.9999V27H30.9999ZM23.9999 20C25.8565 20 27.6369 20.7375 28.9497 22.0502C30.2624 23.363 30.9999 25.1435 30.9999 27H28.9999C28.9999 25.6739 28.4732 24.4021 27.5355 23.4644C26.5978 22.5268 25.326 22 23.9999 22V20Z" fill="#070707"/>
</svg>
