<svg width="45" height="45" viewBox="0 0 45 45" fill="none" xmlns="http://www.w3.org/2000/svg">
<path d="M31.0001 21L31.7071 21.707L32.4141 21L31.7071 20.293L31.0001 21ZM14.0001 29C14.0001 29.2652 14.1054 29.5195 14.293 29.7071C14.4805 29.8946 14.7348 30 15.0001 30C15.2653 30 15.5196 29.8946 15.7072 29.7071C15.8947 29.5195 16.0001 29.2652 16.0001 29H14.0001ZM26.7071 26.707L31.7071 21.707L30.2931 20.293L25.2931 25.293L26.7071 26.707ZM31.7071 20.293L26.7071 15.293L25.2931 16.707L30.2931 21.707L31.7071 20.293ZM31.0001 20H21.0001V22H31.0001V20ZM14.0001 27V29H16.0001V27H14.0001ZM21.0001 20C19.1435 20 17.3631 20.7375 16.0503 22.0502C14.7376 23.363 14.0001 25.1435 14.0001 27H16.0001C16.0001 25.6739 16.5268 24.4021 17.4645 23.4644C18.4022 22.5268 19.674 22 21.0001 22V20Z" fill="#070707"/>
</svg>
