<svg width="32" height="31" viewBox="0 0 32 31" fill="none" xmlns="http://www.w3.org/2000/svg">
<path fill-rule="evenodd" clip-rule="evenodd" d="M13.75 11V9.5H18.25V11H13.75ZM12.25 11V9C12.25 8.73478 12.3554 8.48043 12.5429 8.29289C12.7304 8.10536 12.9848 8 13.25 8H18.75C19.0152 8 19.2696 8.10536 19.4571 8.29289C19.6446 8.48043 19.75 8.73478 19.75 9V11H22.25C22.4489 11 22.6397 11.079 22.7803 11.2197C22.921 11.3603 23 11.5511 23 11.75C23 11.9489 22.921 12.1397 22.7803 12.2803C22.6397 12.421 22.4489 12.5 22.25 12.5H21.885L21.142 22.153C21.1034 22.6554 20.8767 23.1248 20.507 23.4673C20.1373 23.8097 19.6519 24 19.148 24H12.852C12.3481 24 11.8627 23.8097 11.493 23.4673C11.1234 23.1248 10.8966 22.6554 10.858 22.153L10.115 12.5H9.75C9.55109 12.5 9.36032 12.421 9.21967 12.2803C9.07902 12.1397 9 11.9489 9 11.75C9 11.5511 9.07902 11.3603 9.21967 11.2197C9.36032 11.079 9.55109 11 9.75 11H12.25ZM11.62 12.5H20.38L19.646 22.038C19.6364 22.1636 19.5798 22.2809 19.4875 22.3666C19.3952 22.4522 19.2739 22.4999 19.148 22.5H12.852C12.7261 22.4999 12.6048 22.4522 12.5125 22.3666C12.4202 22.2809 12.3636 22.1636 12.354 22.038L11.62 12.5Z" fill="#17181C"/>
</svg>
