<svg width="32" height="32" viewBox="0 0 32 32" fill="none" xmlns="http://www.w3.org/2000/svg">
<path d="M10.5 15.4999C8.514 16.2939 6 17.0059 6 17.4999C6 17.9939 6.993 18.3899 8.979 19.1849L11.787 20.3089C13.773 21.1029 14.767 21.4999 16 21.4999C17.233 21.4999 18.227 21.1029 20.213 20.3089L23.021 19.1849C25.007 18.3909 26 17.9939 26 17.4999C26 17.0059 25.007 16.6099 23.021 15.8149L21 15" stroke="#070707" stroke-width="2" stroke-linecap="round"/>
<path d="M8.5 11C6.514 11.794 6 12.006 6 12.5C6 12.994 6.993 13.39 8.979 14.185L11.787 15.309C13.773 16.103 14.767 16.5 16 16.5C17.233 16.5 18.227 16.103 20.213 15.309L23.021 14.185C25.007 13.391 26 12.994 26 12.5" stroke="#070707" stroke-width="2" stroke-linecap="round"/>
</svg>
