<svg width="32" height="32" viewBox="0 0 32 32" fill="none" xmlns="http://www.w3.org/2000/svg">
<path d="M8.5 17.5C6.514 18.294 6 18.0059 6 18.4999C6 18.9939 6.993 19.3899 8.979 20.1849L11.787 21.3089C13.773 22.1029 14.767 22.4999 16 22.4999C17.233 22.4999 18.227 22.1029 20.213 21.3089L23.021 20.1849C25.007 19.3909 26 18.9939 26 18.4999" stroke="#070707" stroke-width="2" stroke-linecap="round"/>
<path d="M6 13C6 12.506 6.514 12.294 8.5 11.5L13.5 9.5C14.736 9.025 15.046 9 16 9C17.233 9 18.227 9.397 20.213 10.192L23.021 11.315L23.039 11.3222C25.013 12.1124 26 12.5075 26 13C26 13.494 25.007 13.891 23.021 14.685L20.213 15.809C18.227 16.603 17.233 17 16 17C14.767 17 13.773 16.603 11.787 15.809L8.979 14.685L8.96102 14.6778C6.98701 13.8876 6 13.4925 6 13Z" stroke="#070707" stroke-width="2" stroke-linecap="round"/>
</svg>
