<svg width="32" height="31" viewBox="0 0 32 31" fill="none" xmlns="http://www.w3.org/2000/svg">
<path d="M12.606 7.4795C13.786 6.9375 14.376 6.6665 15 6.6665C15.624 6.6665 16.214 6.9375 17.394 7.4795L22.287 9.7275C24.096 10.5565 25 10.9735 25 11.6665C25 12.3595 24.096 12.7755 22.287 13.6065L17.394 15.8535C16.214 16.3955 15.624 16.6665 15 16.6665C14.376 16.6665 13.786 16.3955 12.606 15.8535L7.713 13.6055C5.904 12.7765 5 12.3595 5 11.6665C5 10.9735 5.904 10.5575 7.713 9.7265L12.606 7.4795Z" fill="#7A7F89" stroke="#17181C" stroke-width="1.5" stroke-linecap="round" stroke-linejoin="round"/>
<path d="M23.233 16.1665C24.41 16.7285 25 17.1065 25 17.6665C25 18.3595 24.096 18.7755 22.287 19.6065L17.394 21.8535C16.214 22.3955 15.624 22.6665 15 22.6665C14.376 22.6665 13.786 22.3965 12.606 21.8535L7.713 19.6065C5.904 18.7765 5 18.3595 5 17.6665C5 17.1065 5.59 16.7285 6.767 16.1665" stroke="#17181C" stroke-width="1.5" stroke-linecap="round" stroke-linejoin="round"/>
</svg>
