<svg width="19" height="15" viewBox="0 0 19 15" fill="none" xmlns="http://www.w3.org/2000/svg">
<path d="M17.0001 5.707L17.7071 6.414L18.4141 5.707L17.7071 5L17.0001 5.707ZM6.29425e-05 13.707C6.29425e-05 13.9722 0.105419 14.2266 0.292955 14.4141C0.480492 14.6016 0.734846 14.707 1.00006 14.707C1.26528 14.707 1.51963 14.6016 1.70717 14.4141C1.89471 14.2266 2.00006 13.9722 2.00006 13.707H6.29425e-05ZM12.7071 11.414L17.7071 6.414L16.2931 5L11.2931 10L12.7071 11.414ZM17.7071 5L12.7071 0L11.2931 1.414L16.2931 6.414L17.7071 5ZM17.0001 4.707H7.00006V6.707H17.0001V4.707ZM6.29425e-05 11.707V13.707H2.00006V11.707H6.29425e-05ZM7.00006 4.707C5.14355 4.707 3.36307 5.4445 2.05032 6.75725C0.73756 8.07001 6.29425e-05 9.85048 6.29425e-05 11.707H2.00006C2.00006 10.3809 2.52685 9.10915 3.46453 8.17147C4.40221 7.23378 5.67398 6.707 7.00006 6.707V4.707Z" fill="#070707"/>
</svg>
